<?xml version="1.0" encoding="UTF-8" standalone="no"?>
<!DOCTYPE svg PUBLIC "-//W3C//DTD SVG 1.1//EN" "http://www.w3.org/Graphics/SVG/1.1/DTD/svg11.dtd">
<svg width="100%" height="100%" viewBox="0 0 804 688" version="1.1" xmlns="http://www.w3.org/2000/svg" xmlns:xlink="http://www.w3.org/1999/xlink" xml:space="preserve" xmlns:serif="http://www.serif.com/" style="fill-rule:evenodd;clip-rule:evenodd;stroke-linejoin:round;stroke-miterlimit:2;">
    <g id="Prancheta1" transform="matrix(1,0,0,1,-438.858,-347.125)">
        <rect x="438.858" y="347.125" width="803.674" height="687.798" style="fill:none;"/>
        <g transform="matrix(0.342226,0,0,0.342226,395.8,333.862)">
            <path d="M1240.66,119.775C1227.55,112.701 1213.9,107.863 1200.08,105.399L1202.05,94.308C1217.05,96.983 1231.84,102.215 1246,109.858L1240.66,119.775ZM1117.72,119.782L1111.66,110.293C1124.99,101.752 1139.67,96.198 1155.31,93.787L1157.02,104.921C1142.94,107.092 1129.72,112.092 1117.72,119.782ZM1306.32,177.777C1296.49,165.436 1286.34,154.504 1276.16,145.286L1283.71,136.93C1294.34,146.556 1304.91,157.936 1315.12,170.751L1306.32,177.777ZM1063.23,186.387L1053.14,181.401C1060.52,166.413 1068.72,153.16 1077.49,142.011L1086.33,148.982C1078.04,159.516 1070.27,172.101 1063.23,186.387ZM1354.58,253.253C1347.18,239.298 1339.62,226.198 1332.11,214.316L1341.62,208.292C1349.28,220.414 1356.99,233.763 1364.52,247.969L1354.58,253.253ZM1033.74,270.791L1022.82,268.061C1026.74,252.329 1031.07,237.511 1035.68,224.018L1046.33,227.663C1041.82,240.856 1037.58,255.367 1033.74,270.791ZM1392.68,335.092C1386.64,320.531 1380.54,306.6 1374.57,293.685L1384.78,288.951C1390.82,302 1396.97,316.069 1403.07,330.768L1392.68,335.092ZM1016.82,359.49L1005.69,357.879C1007.96,342.106 1010.47,326.937 1013.12,312.794L1024.18,314.877C1021.55,328.864 1019.08,343.874 1016.82,359.49ZM1425.06,419.618C1419.63,404.423 1414.5,390.533 1409.4,377.156L1419.91,373.136C1425.04,386.587 1430.19,400.549 1435.66,415.818L1425.06,419.618ZM1006.59,449.522L995.379,448.526C996.781,432.719 998.307,417.453 999.913,403.153L1011.1,404.412C1009.5,418.626 1007.98,433.803 1006.59,449.522ZM2014.63,468.527C2000.7,462.642 1986.59,459 1972.7,457.701L1973.75,446.484C1988.78,447.89 2004.01,451.814 2019.01,458.147L2014.63,468.527ZM1891.85,482.329L1885.41,473.098C1899.24,463.405 1913.22,456.226 1926.95,451.762L1930.43,462.476C1917.76,466.596 1904.78,473.276 1891.85,482.329ZM1454.55,505.479C1448.96,488.717 1444.34,475.05 1440.04,462.467L1450.68,458.815C1455,471.424 1459.62,485.117 1465.22,501.906L1454.55,505.479ZM2086,519.511C2075.17,508.399 2063.95,498.591 2052.66,490.359L2059.29,481.253C2071.09,489.855 2082.78,500.079 2094.06,511.642L2086,519.511ZM549.367,537.722C535.326,530.727 521.513,526.261 508.318,524.451L509.845,513.289C524.257,515.267 539.241,520.093 554.38,527.636L549.367,537.722ZM1000.04,540.081L988.807,539.411C989.781,523.036 990.748,508.165 991.764,493.948L1002.99,494.752C1001.98,508.923 1001.01,523.751 1000.04,540.081ZM1828.39,544.511L1819.65,537.418C1830.2,524.381 1840.2,513.164 1850.22,503.124L1858.18,511.086C1848.44,520.847 1838.69,531.781 1828.39,544.511ZM427.991,547.957L421.166,539C434.604,528.737 448.589,521.335 462.734,517.002L466.027,527.775C453.162,531.716 440.365,538.506 427.991,547.957ZM2140.08,590.429C2132.01,577.256 2123.56,564.797 2114.95,553.399L2123.92,546.603C2132.75,558.293 2141.42,571.058 2149.67,584.542L2140.08,590.429ZM620.18,590.91C608.679,579.699 597.371,569.796 586.569,561.475L593.431,552.546C604.577,561.133 616.218,571.324 628.03,582.838L620.18,590.91ZM1483.4,591.699C1478.24,576.559 1473.18,561.41 1468.91,548.588L1479.58,545.023C1483.85,557.827 1488.9,572.952 1494.05,588.06L1483.4,591.699ZM370.22,614.618L360.736,608.555C369.578,594.691 378.695,582.168 387.834,571.337L396.43,578.607C387.613,589.057 378.794,601.174 370.22,614.618ZM1775.76,617.798L1766.38,611.586C1775.78,597.344 1784.19,585.023 1792.08,573.922L1801.25,580.457C1793.43,591.451 1785.09,603.665 1775.76,617.798ZM995.204,630.858L983.966,630.291C984.724,615.24 985.477,600.182 986.28,584.858L997.517,585.449C996.714,600.764 995.961,615.815 995.204,630.858ZM680.174,658.06C669.963,645.37 660.46,634.077 651.119,623.533L659.537,616.057C668.996,626.735 678.613,638.162 688.937,650.992L680.174,658.06ZM2180.94,670.355C2174.89,656.247 2168.49,642.542 2161.92,629.621L2171.95,624.51C2178.63,637.648 2185.14,651.577 2191.28,665.911L2180.94,670.355ZM1514.53,677.381C1509.43,664.582 1504.16,650.617 1498.43,634.69L1509.01,630.867C1514.71,646.676 1519.93,660.526 1524.98,673.209L1514.53,677.381ZM1726.41,694.042L1717.01,687.852C1725.01,675.681 1733.27,662.785 1741.63,649.758L1751.09,655.848C1742.71,668.909 1734.45,681.816 1726.41,694.042ZM328.466,694.045L318.172,689.497C324.349,675.49 330.932,661.735 337.926,648.286L347.904,653.494C341.021,666.727 334.545,680.261 328.466,694.045ZM990.203,721.778L978.974,721.051C979.827,707.852 980.695,693.017 981.627,675.697L992.863,676.303C991.929,693.663 991.058,708.538 990.203,721.778ZM734.957,730.151C724.662,716.065 716.083,704.5 707.956,693.757L716.927,686.956C725.091,697.75 733.706,709.361 744.039,723.499L734.957,730.151ZM2211.87,754.927C2207.34,740.33 2202.5,725.961 2197.5,712.219L2208.07,708.358C2213.14,722.27 2218.03,736.813 2222.62,751.583L2211.87,754.927ZM1554.7,759.916C1547.42,748.668 1540.2,735.423 1532.64,719.423L1542.81,714.604C1550.16,730.147 1557.14,742.964 1564.15,753.788L1554.7,759.916ZM1671.83,767.662L1663.56,760.02C1672.09,750.768 1681.24,739.357 1691.52,725.132L1700.64,731.738C1690.09,746.328 1680.66,758.079 1671.83,767.662ZM297.228,778.402L286.467,775.108C290.939,760.47 295.843,745.912 301.047,731.837L311.599,735.748C306.471,749.62 301.636,763.971 297.228,778.402ZM1612.25,802.676C1603.49,802.676 1594.89,800.055 1586.7,794.885L1592.7,785.354C1605.01,793.133 1617.12,793.15 1630.19,786.946L1635.03,797.115C1627.3,800.805 1619.64,802.676 1612.25,802.676ZM788.433,803.603C779.286,791.235 769.799,778.162 761.624,766.88L770.733,760.265C778.892,771.526 788.36,784.572 797.477,796.898L788.433,803.603ZM982.033,812.759L970.872,811.321C972.6,797.874 974.15,783.148 975.607,766.302L986.818,767.275C985.346,784.278 983.781,799.156 982.033,812.759ZM2234.99,842.123C2231.66,827.243 2228.06,812.492 2224.31,798.279L2235.18,795.397C2238.98,809.747 2242.61,824.64 2245.97,839.659L2234.99,842.123ZM275.579,865.823L264.532,863.677C267.447,848.641 270.745,833.647 274.335,819.112L285.259,821.817C281.714,836.167 278.457,850.973 275.579,865.823ZM845.279,875.063C836.315,865.069 826.735,853.567 815.993,839.899L824.835,832.932C835.426,846.406 844.852,857.725 853.651,867.536L845.279,875.063ZM959.955,902.47L949.934,897.347C955.085,887.248 959.638,873.234 963.469,855.694L974.461,858.099C970.369,876.844 965.624,891.357 959.955,902.47ZM920.915,929.274C905.279,926.806 893.97,919.68 878.303,907.374L885.416,898.644C899.14,909.396 909.053,915.846 922.114,918.072L920.915,929.274ZM2251.72,930.864C2249.38,915.83 2246.81,900.852 2244.08,886.347L2255.14,884.262C2257.89,898.883 2260.48,913.978 2262.84,929.129L2251.72,930.864ZM262.584,955.036L251.388,953.911C252.917,938.676 254.78,923.449 256.927,908.652L268.063,910.272C265.939,924.905 264.096,939.966 262.584,955.036ZM2263.08,1020.52C2261.58,1005.39 2259.88,990.281 2258.02,975.607L2269.19,974.194C2271.05,988.966 2272.76,1004.18 2274.28,1019.41L2263.08,1020.52ZM257.237,1045.1L245.987,1044.87C246.3,1029.58 246.904,1014.26 247.783,999.348L259.017,1000.01C258.146,1014.78 257.547,1029.95 257.237,1045.1ZM2269.81,1110.69C2269.04,1095.56 2268.08,1080.37 2266.98,1065.56L2278.21,1064.73C2279.31,1079.63 2280.27,1094.9 2281.05,1110.12L2269.81,1110.69ZM247.35,1135.94C246.604,1120.69 246.109,1105.38 245.879,1090.43L257.13,1090.26C257.358,1105.08 257.849,1120.27 258.588,1135.39L247.35,1135.94ZM2272.47,1201.11C2272.34,1185.96 2272.05,1170.74 2271.62,1155.88L2282.86,1155.55C2283.3,1170.49 2283.59,1185.78 2283.72,1201.01L2272.47,1201.11ZM254.641,1226.71C252.963,1211.55 251.503,1196.3 250.301,1181.39L261.517,1180.48C262.711,1195.28 264.16,1210.42 265.825,1225.47L254.641,1226.71ZM2282.77,1291.93L2271.52,1291.6C2271.96,1276.46 2272.27,1261.24 2272.42,1246.36L2283.68,1246.48C2283.52,1261.42 2283.21,1276.72 2282.77,1291.93ZM267.173,1316.88C264.671,1301.87 262.354,1286.73 260.288,1271.89L271.432,1270.33C273.485,1285.08 275.787,1300.11 278.272,1315.03L267.173,1316.88ZM2278.56,1382.73L2267.33,1382.02C2268.29,1366.94 2269.12,1351.74 2269.81,1336.82L2281.05,1337.35C2280.36,1352.32 2279.52,1367.59 2278.56,1382.73ZM284.428,1406.24C281.178,1391.41 278.086,1376.42 275.237,1361.67L286.285,1359.53C289.116,1374.19 292.19,1389.09 295.419,1403.83L284.428,1406.24ZM2271.4,1473.33L2260.2,1472.27C2261.62,1457.19 2262.94,1442.01 2264.12,1427.17L2275.33,1428.06C2274.15,1442.96 2272.83,1458.19 2271.4,1473.33ZM306.063,1494.64C302.125,1480.08 298.305,1465.26 294.71,1450.57L305.639,1447.89C309.213,1462.49 313.009,1477.22 316.924,1491.69L306.063,1494.64ZM2261.54,1563.66L2250.37,1562.28C2252.23,1547.26 2253.99,1532.13 2255.61,1517.31L2266.79,1518.53C2265.17,1533.4 2263.4,1548.59 2261.54,1563.66ZM332.015,1581.89C327.414,1567.78 322.862,1553.15 318.486,1538.42L329.271,1535.21C333.619,1549.84 338.141,1564.37 342.712,1578.39L332.015,1581.89Z" style="fill:rgb(179,210,255);fill-rule:nonzero;"/>
            <path d="M2332.85,1402.88C2239.48,1388.41 2254.71,1519.19 2121.61,1519.19C1999.91,1519.19 1960.98,1021.15 1872.44,1163.52C1418.51,1893.38 1682.1,853.132 1321.1,839.913C1157.86,833.936 1049.09,1015.98 1008.98,1338.28C950.835,1629.66 815.993,1116.04 677.225,1163.8C589.032,1194.15 599.132,1519.19 477.437,1519.19C344.334,1519.19 359.572,1388.41 266.194,1402.88C165.658,1418.47 135.63,1649.95 135.63,1649.95L2463.42,1649.95C2463.42,1649.95 2433.39,1418.47 2332.85,1402.88Z" style="fill:rgb(198,220,247);fill-rule:nonzero;"/>
            <path d="M2250.16,1544.45C2164.26,1538.27 2178.27,1594.11 2055.82,1594.11C1943.87,1594.11 1946.94,1468.96 1872.02,1442.36C1734.05,1393.37 1620.31,1641.29 1566.82,1516.86C1465.22,1186.72 1168.92,1021.15 1032.23,1516.86C978.738,1641.29 853.651,1419.27 727.024,1442.36C649.08,1456.57 655.18,1594.11 543.224,1594.11C420.772,1594.11 434.79,1538.27 348.886,1544.45C256.394,1551.1 228.769,1649.95 228.769,1649.95L2370.28,1649.95C2370.28,1649.95 2342.65,1551.1 2250.16,1544.45Z" style="fill:rgb(210,229,247);fill-rule:nonzero;"/>
            <path d="M135.63,1649.95C135.63,1649.95 121.029,1709.41 188.687,1724.3C281.229,1744.67 824.439,1798.17 692.474,1838.83C617.98,1861.78 730.503,1892.95 1093.34,1904.43C1456.19,1915.9 2078.79,1870.94 1869.42,1804.4C1660.05,1737.87 2515.38,1788.34 2463.42,1649.95L135.63,1649.95Z" style="fill:rgb(186,210,244);fill-rule:nonzero;"/>
            <g transform="matrix(1,0,0,1,64.201,0)">
                <g transform="matrix(0.673355,0,0,0.673355,360.438,308.537)">
                    <path d="M1893,1000C1893,1327.5 1627.5,1593 1300,1593C972.495,1593 707,1327.5 707,1000C707,672.495 972.495,407 1300,407C1627.5,407 1893,672.495 1893,1000Z" style="fill:rgb(235,86,72);fill-rule:nonzero;"/>
                </g>
                <g transform="matrix(0.673355,0,0,0.673355,360.438,308.537)">
                    <path d="M1848,1000C1848,1302.65 1602.65,1548 1300,1548C997.348,1548 752,1302.65 752,1000C752,697.348 997.348,452 1300,452C1602.65,452 1848,697.348 1848,1000Z" style="fill:white;fill-rule:nonzero;"/>
                </g>
                <g transform="matrix(0.673355,0,0,0.673355,360.438,308.537)">
                    <path d="M1809,1000C1809,1281.11 1581.11,1509 1300,1509C1018.89,1509 791,1281.11 791,1000C791,718.887 1018.89,491 1300,491C1581.11,491 1809,718.887 1809,1000Z" style="fill:rgb(235,86,72);fill-rule:nonzero;"/>
                </g>
                <g transform="matrix(0.673355,0,0,0.673355,360.438,308.537)">
                    <path d="M1558.78,965.851C1536.88,954.098 1509.6,962.32 1497.85,984.217L1455.59,1062.93C1448.66,1050.22 1440.4,1038.34 1431,1027.48L1431,739.5C1431,718.789 1414.21,702 1393.5,702C1372.78,702 1356,718.789 1356,739.5L1356,973.29C1350.18,970.877 1344.24,968.725 1338.16,966.857L1338.16,677.5C1338.16,656.789 1321.37,640 1300.66,640C1279.95,640 1263.16,656.789 1263.16,677.5L1263.16,958.619C1257.14,959.088 1251.19,959.833 1245.33,960.822L1245.33,723.5C1245.33,702.789 1228.54,686 1207.83,686C1187.12,686 1170.33,702.789 1170.33,723.5L1170.33,989.883C1164.14,993.867 1158.19,998.188 1152.5,1002.81L1152.5,818C1152.5,797.29 1135.71,780.5 1115,780.5C1094.29,780.5 1077.5,797.29 1077.5,818L1077.5,1147C1077.5,1149.23 1077.7,1151.4 1078.07,1153.52C1078.02,1155.34 1078,1157.17 1078,1159C1078,1270.01 1167.99,1360 1279,1360C1362.33,1360 1433.82,1309.28 1464.29,1237.02L1577.14,1026.78C1588.9,1004.89 1580.68,977.606 1558.78,965.851Z" style="fill:white;fill-rule:nonzero;"/>
                </g>
            </g>
            <path d="M1692.76,305.882L1692.76,397.452C1691.45,404.962 1684.89,410.672 1677,410.672C1669.11,410.672 1662.55,404.962 1661.24,397.452L1661.24,305.882C1661.24,297.172 1668.29,290.122 1677,290.122C1685.71,290.122 1692.76,297.172 1692.76,305.882Z" style="fill:rgb(143,179,242);fill-rule:nonzero;"/>
            <path d="M1693,439.672C1693,448.509 1685.84,455.672 1677,455.672C1668.16,455.672 1661,448.509 1661,439.672C1661,430.836 1668.16,423.672 1677,423.672C1685.84,423.672 1693,430.836 1693,439.672Z" style="fill:rgb(143,179,242);fill-rule:nonzero;"/>
            <path d="M437,803.5C437,792.163 440.311,781.592 445.998,772.676L525.324,852.002C516.408,857.689 505.837,861 494.5,861C462.794,861 437,835.206 437,803.5ZM552,803.5C552,814.837 548.689,825.408 543.002,834.324L463.676,754.998C472.592,749.311 483.163,746 494.5,746C526.206,746 552,771.794 552,803.5ZM553.734,860.839C568.12,845.982 577,825.764 577,803.5C577,758.009 539.991,721 494.5,721C472.236,721 452.018,729.88 437.162,744.265C436.817,744.544 436.482,744.841 436.161,745.161C435.841,745.482 435.544,745.816 435.266,746.161C420.88,761.018 412,781.236 412,803.5C412,848.991 449.009,886 494.5,886C516.763,886 536.982,877.12 551.838,862.735C552.183,862.456 552.518,862.159 552.839,861.839C553.159,861.518 553.456,861.184 553.734,860.839Z" style="fill:rgb(143,179,242);fill-rule:nonzero;"/>
            <path d="M1975,746.5C1975,735.163 1978.31,724.592 1984,715.676L2063.32,795.002C2054.41,800.689 2043.84,804 2032.5,804C2000.79,804 1975,778.206 1975,746.5ZM2090,746.5C2090,757.837 2086.69,768.408 2081,777.324L2001.68,697.998C2010.59,692.311 2021.16,689 2032.5,689C2064.21,689 2090,714.794 2090,746.5ZM2091.74,803.837C2106.12,788.981 2115,768.763 2115,746.5C2115,701.009 2077.99,664 2032.5,664C2010.24,664 1990.02,672.88 1975.16,687.264C1974.82,687.543 1974.48,687.84 1974.16,688.161C1973.84,688.482 1973.54,688.817 1973.26,689.163C1958.88,704.019 1950,724.237 1950,746.5C1950,791.991 1987.01,829 2032.5,829C2054.76,829 2074.98,820.12 2089.84,805.736C2090.18,805.457 2090.52,805.16 2090.84,804.839C2091.16,804.518 2091.46,804.183 2091.74,803.837Z" style="fill:rgb(244,159,159);fill-rule:nonzero;"/>
            <path d="M813.696,421.004L856.777,377.923C862.934,371.767 862.934,361.787 856.777,355.631C850.622,349.474 840.642,349.475 834.485,355.631L791.404,398.712L748.323,355.631C742.168,349.475 732.186,349.475 726.031,355.631C719.875,361.787 719.875,371.767 726.031,377.923L769.112,421.004L726.031,464.085C719.875,470.24 719.875,480.221 726.031,486.377C729.109,489.455 733.142,490.994 737.177,490.994C741.211,490.994 745.246,489.454 748.323,486.377L791.404,443.296L834.485,486.377C837.563,489.455 841.597,490.994 845.631,490.994C849.665,490.994 853.7,489.455 856.777,486.377C862.934,480.221 862.934,470.24 856.777,464.085L813.696,421.004Z" style="fill:rgb(255,210,210);fill-rule:nonzero;"/>
            <g transform="matrix(1,0,0,1,-25.8027,246.968)">
                <path d="M635.867,1057.12C649.036,972.014 698.156,992.063 698.156,992.063C698.158,992.065 725.172,978.024 747.511,1012.2C782.928,1066.38 824.349,1052.84 834.056,1101.66C843.567,1149.49 778.488,1203.85 700.975,1168.51C700.975,1168.51 622.609,1142.8 635.867,1057.12Z" style="fill:rgb(102,41,72);fill-rule:nonzero;"/>
            </g>
            <g transform="matrix(1,0,0,1,-25.8027,246.968)">
                <path d="M892.239,1196.94C895.583,1199.79 887.622,1206.53 887.21,1210.52C894.114,1209.04 900.642,1205.55 900.686,1205.57C907.524,1200.11 914.054,1194.3 920.324,1188.19C933.234,1185 908.816,1207.89 906.833,1210.57C906.858,1210.6 906.881,1210.64 906.905,1210.68C915.101,1206.59 923.086,1202.04 930.637,1196.85C944.61,1196.51 912.49,1215.49 909.695,1217.54C909.7,1217.56 909.704,1217.58 909.709,1217.6C918.068,1215.06 926.121,1211.49 933.691,1207.12C947.8,1208.03 913.677,1224.77 910.326,1225.83C910.324,1225.86 910.323,1225.89 910.321,1225.93C917.178,1224.89 923.9,1222.97 930.469,1220.73C943.49,1223.46 911.912,1233.75 908.737,1234.38C906.767,1235.92 894.415,1239.41 878.811,1240.23C873.698,1240.49 869.404,1226.83 871.632,1222.32C873.72,1218.09 878.008,1213.3 879.507,1211.52C881.867,1207.59 887.115,1195.63 892.239,1196.94Z" style="fill:rgb(249,147,112);fill-rule:nonzero;"/>
            </g>
            <g transform="matrix(1,0,0,1,-25.8027,246.968)">
                <path d="M692.275,1156.45C705.012,1165.85 711.782,1180.15 721.663,1193.34C733.267,1209.71 746.528,1227.18 763.547,1238.75C799.697,1262.19 844.793,1252.91 882.826,1240.46C896.624,1236.2 890.396,1214.53 876.449,1218.3C843.914,1225.66 800.311,1232.3 777.275,1202.71C755.054,1177.03 748.184,1140.97 723.224,1116.95C696.079,1092.03 661.516,1135.98 692.275,1156.45Z" style="fill:rgb(249,147,112);fill-rule:nonzero;"/>
            </g>
            <g transform="matrix(1,0,0,1,-25.8027,246.968)">
                <path d="M708.585,1201.75C712.689,1213.15 718.221,1222.08 724.352,1229.01C735.982,1242.16 749.795,1248.12 760.175,1250.12C760.526,1250.19 760.868,1250.26 761.209,1250.32C777.027,1253.06 810.834,1214.07 792.524,1200.69C774.225,1187.33 777.399,1179.23 755.574,1147.05C733.749,1114.87 715.346,1109.06 715.346,1109.06C715.605,1133.93 696.448,1167.96 708.585,1201.75Z" style="fill:rgb(206,74,191);fill-rule:nonzero;"/>
            </g>
            <g transform="matrix(1,0,0,1,-25.8027,246.968)">
                <path d="M415.727,1621.64L403.801,1548.2C407.493,1546.31 425.841,1547.05 432.262,1545.28C436.368,1544.89 487.961,1530.52 493.334,1529.2L500.181,1571.37L444.815,1573.37C438.248,1573.61 432.789,1578.48 431.768,1584.97C428.804,1599.35 433.824,1614.4 424.582,1624.81C421.414,1627.6 416.404,1625.81 415.727,1621.64Z" style="fill:rgb(249,147,112);fill-rule:nonzero;"/>
            </g>
            <g transform="matrix(1,0,0,1,-25.8027,246.968)">
                <path d="M410.502,1544.83C408.07,1545.53 405.772,1546.6 403.8,1548.2L415.824,1622.25C416.409,1625.85 420.377,1627.88 423.581,1626.13C431.064,1622.03 441.004,1610.4 437.247,1575.98C437.247,1575.98 431.904,1564.93 432.261,1545.28C432.261,1545.28 420.359,1541.97 410.502,1544.83Z" style="fill:rgb(29,63,112);fill-rule:nonzero;"/>
            </g>
            <g transform="matrix(1,0,0,1,-25.8027,246.968)">
                <path d="M435.22,1612.25C432.531,1611.5 432.791,1607.33 423.817,1605.13C422.999,1604.95 422.486,1604.13 422.673,1603.31C425.989,1598.65 441.739,1611.96 435.22,1612.25Z" style="fill:rgb(232,192,166);fill-rule:nonzero;"/>
            </g>
            <g transform="matrix(1,0,0,1,-25.8027,246.968)">
                <path d="M437.55,1601.26C437.087,1601.26 436.631,1601.05 436.333,1600.65C436.286,1600.58 431.556,1594.41 423.459,1593.27C421.504,1593.03 421.933,1589.95 423.88,1590.26C433.269,1591.58 438.548,1598.53 438.768,1598.83C439.527,1599.78 438.755,1601.29 437.55,1601.26Z" style="fill:rgb(232,192,166);fill-rule:nonzero;"/>
            </g>
            <g transform="matrix(1,0,0,1,-25.8027,246.968)">
                <path d="M437.997,1587.53C435.893,1587.16 432.903,1581.61 422.884,1579.73C420.944,1579.42 421.466,1576.36 423.41,1576.74C433.453,1578.9 443.053,1585.87 437.997,1587.53Z" style="fill:rgb(232,192,166);fill-rule:nonzero;"/>
            </g>
            <g transform="matrix(1,0,0,1,-25.8027,246.968)">
                <path d="M423.695,1626.07L410.502,1544.83C408.07,1545.53 405.772,1546.6 403.8,1548.2L415.824,1622.25C416.412,1625.9 420.493,1627.92 423.695,1626.07Z" style="fill:rgb(57,91,150);fill-rule:nonzero;"/>
            </g>
            <g transform="matrix(1,0,0,1,-25.8027,246.968)">
                <path d="M724.352,1229.01C735.982,1242.16 749.795,1248.12 760.175,1250.12C753.641,1236.79 762.698,1230.98 764.372,1209.14C766.13,1186.26 746.125,1162.44 746.125,1162.44L724.352,1229.01Z" style="fill:rgb(165,35,162);fill-rule:nonzero;"/>
            </g>
            <g transform="matrix(1,0,0,1,-25.8027,246.968)">
                <path d="M743.603,1746.52L669.29,1745.7C668.064,1741.73 671.921,1723.81 671.279,1717.17C671.262,1714.38 670.546,1699.09 670.289,1696.31L675.852,1654.38L708.61,1654.74L701.112,1709.61C700.223,1716.12 704.086,1722.33 710.307,1724.45C723.961,1729.81 739.549,1727.48 748.288,1738.25C750.557,1741.86 747.874,1746.57 743.603,1746.52Z" style="fill:rgb(249,147,112);fill-rule:nonzero;"/>
            </g>
            <g transform="matrix(1,0,0,1,-25.8027,246.968)">
                <path d="M667.11,1738.53C667.385,1741.04 668.053,1743.49 669.289,1745.7L744.325,1746.53C747.974,1746.57 750.654,1743.01 749.482,1739.55C746.721,1731.48 736.958,1719.7 702.391,1717.51C702.391,1717.51 690.585,1720.88 671.278,1717.17C671.278,1717.17 665.977,1728.33 667.11,1738.53Z" style="fill:rgb(29,63,112);fill-rule:nonzero;"/>
            </g>
            <g transform="matrix(1,0,0,1,-25.8027,246.968)">
                <path d="M727.422,1736.66C726.367,1736.68 725.587,1735.53 726.021,1734.55C729.372,1726.54 735.492,1724.13 735.751,1724.03C737.58,1723.31 738.687,1726.19 736.84,1726.87C736.609,1726.96 731.643,1728.99 728.825,1735.73C728.581,1736.31 728.017,1736.66 727.422,1736.66Z" style="fill:rgb(232,192,166);fill-rule:nonzero;"/>
            </g>
            <g transform="matrix(1,0,0,1,-25.8027,246.968)">
                <path d="M715.624,1735.11C714.617,1735.12 713.848,1734.08 714.177,1733.12C716.958,1723.03 730.159,1715.59 726.544,1722.63C726.455,1722.68 719.571,1726.28 717.071,1734.05C716.864,1734.7 716.267,1735.11 715.624,1735.11Z" style="fill:rgb(232,192,166);fill-rule:nonzero;"/>
            </g>
            <g transform="matrix(1,0,0,1,-25.8027,246.968)">
                <path d="M702.2,1733.31C701.173,1733.32 700.399,1732.24 700.77,1731.27C704.058,1722.15 711.272,1717.41 711.577,1717.21C713.214,1716.12 714.901,1718.71 713.228,1719.76C713.13,1719.83 706.551,1724.2 703.629,1732.3C703.407,1732.92 702.822,1733.31 702.2,1733.31Z" style="fill:rgb(232,192,166);fill-rule:nonzero;"/>
            </g>
            <g transform="matrix(1,0,0,1,-25.8027,246.968)">
                <path d="M749.439,1739.43L667.11,1738.53C667.385,1741.04 668.053,1743.49 669.289,1745.7L744.325,1746.53C748.025,1746.57 750.716,1742.9 749.439,1739.43Z" style="fill:rgb(57,91,150);fill-rule:nonzero;"/>
            </g>
            <g transform="matrix(1,0,0,1,-25.8027,246.968)">
                <path d="M444.424,1538.42C444.424,1538.42 444.424,1559.35 450.125,1579.3C592.779,1567.41 651.996,1548.85 663.138,1410.42C663.138,1410.42 711.88,1503.64 665.333,1680.91L665.32,1680.91C663.976,1686.11 662.573,1691.22 661.074,1696.43C661.074,1696.43 679.381,1711.4 704.685,1706.49C736.231,1646.54 805.842,1502.23 745.733,1313.44C709.908,1271.99 637.802,1267.78 592.014,1288.58C555.165,1383.34 619.862,1499.92 444.424,1538.42Z" style="fill:rgb(58,114,170);fill-rule:nonzero;"/>
            </g>
            <g transform="matrix(1,0,0,1,-25.8027,246.968)">
                <path d="M444.424,1538.42C444.424,1538.42 444.424,1559.35 450.125,1579.3C450.125,1579.3 456.553,1578.85 466.95,1577.78C460.415,1561.77 460.603,1534.47 460.603,1534.47C455.51,1535.93 449.979,1537.07 444.424,1538.42Z" style="fill:rgb(35,101,155);fill-rule:nonzero;"/>
            </g>
            <g transform="matrix(1,0,0,1,-25.8027,246.968)">
                <path d="M661.074,1696.43C661.074,1696.43 679.381,1711.4 704.685,1706.49C704.685,1706.49 707.035,1701.9 711.506,1693.28C711.506,1693.28 681.59,1696.1 665.333,1680.91L665.32,1680.91C663.997,1686.01 662.582,1691.18 661.074,1696.43Z" style="fill:rgb(35,101,155);fill-rule:nonzero;"/>
            </g>
            <g transform="matrix(1,0,0,1,-25.8027,246.968)">
                <path d="M665.32,1680.91C664.857,1682.71 664.381,1684.5 663.891,1686.32L672.952,1686.32C704.647,1591.37 710.183,1435 663.138,1410.42C663.138,1410.42 711.88,1503.64 665.333,1680.91L665.32,1680.91Z" style="fill:rgb(35,101,155);fill-rule:nonzero;"/>
            </g>
            <g transform="matrix(1,0,0,1,-25.8027,246.968)">
                <path d="M696.738,1701.9C721.692,1645.01 738.34,1589.46 746.219,1536.79C752.534,1494.57 753.264,1454.1 748.386,1416.48C740.048,1352.18 718.474,1318.93 717.56,1317.55L711.521,1321.54L714.541,1319.55L711.519,1321.54C711.736,1321.86 733.224,1355.11 741.276,1417.93C748.715,1475.98 745.878,1571.86 690.109,1698.99L696.738,1701.9Z" style="fill:rgb(35,101,155);fill-rule:nonzero;"/>
            </g>
            <g transform="matrix(1,0,0,1,-25.8027,246.968)">
                <path d="M456.033,1574.18C506.965,1569.27 544.998,1560.5 572.305,1547.36C599.436,1534.31 617.84,1516.06 628.571,1491.56C655.448,1430.21 645.567,1307.13 645.133,1301.92L637.921,1302.52C638.025,1303.77 648.082,1428.99 621.943,1488.66C601.71,1534.84 553.442,1557.53 455.339,1566.97L456.033,1574.18Z" style="fill:rgb(35,101,155);fill-rule:nonzero;"/>
            </g>
            <g transform="matrix(1,0,0,1,-25.8027,246.968)">
                <path d="M589.56,1295.36C621.424,1310.48 695.638,1342.19 746.931,1317.25C749.776,1311.27 750.221,1302.01 748.064,1295.37C728.152,1227.1 781.383,1218.19 745.177,1160.91C737.074,1148.17 721.758,1120.95 715.351,1109.06C709.358,1123.42 691.776,1109.83 684.676,1101.61C679.455,1101.85 622.7,1106.62 599.941,1227.91C597.647,1240.21 566.236,1276.38 589.56,1295.36Z" style="fill:rgb(206,74,191);fill-rule:nonzero;"/>
            </g>
            <g transform="matrix(1,0,0,1,-25.8027,246.968)">
                <path d="M697.377,1272.82C698.12,1277.15 687.69,1277.23 684.82,1280.03C691.07,1283.31 698.319,1284.81 698.34,1284.85C707.085,1285.05 715.823,1284.76 724.552,1284.09C736.506,1289.91 703.096,1291.85 699.857,1292.63C699.853,1292.68 699.846,1292.72 699.842,1292.76C708.756,1294.87 717.802,1296.49 726.925,1297.34C737.871,1306.03 701.052,1300.03 697.589,1299.82C697.579,1299.84 697.569,1299.86 697.559,1299.88C705.607,1303.28 714.077,1305.7 722.693,1307.18C732.944,1316.92 696.015,1307.92 692.767,1306.59C692.743,1306.61 692.72,1306.64 692.697,1306.66C698.63,1310.25 705.019,1313.09 711.501,1315.57C719.748,1326.01 688.909,1313.69 686.066,1312.14C683.571,1312.06 671.847,1306.83 659.341,1297.46C655.243,1294.39 660.699,1281.15 665.298,1279.11C669.611,1277.2 675.974,1276.26 678.263,1275.86C682.595,1274.35 694.284,1268.53 697.377,1272.82Z" style="fill:rgb(249,147,112);fill-rule:nonzero;"/>
            </g>
            <g transform="matrix(1,0,0,1,-25.8027,246.968)">
                <path d="M642.839,1109.96C612.35,1132.83 580.977,1168.11 569.812,1204.68C552.141,1255.16 615.532,1284.8 656.308,1296.73C664.282,1299.76 673.577,1301.4 676.878,1291.28C679.218,1282.03 671.531,1278.34 664.343,1275.63C650.935,1269.42 637.253,1261.56 626.16,1252.19C613.207,1241.54 602.792,1226.94 612.891,1211.56C624.961,1186.84 645.668,1165.65 669.104,1152.06C696.566,1134.76 670.437,1092.91 642.839,1109.96Z" style="fill:rgb(249,147,112);fill-rule:nonzero;"/>
            </g>
            <g transform="matrix(1,0,0,1,-25.8027,246.968)">
                <path d="M684.364,1101.62C684.364,1101.62 638.814,1093.26 605.378,1134.62C571.943,1175.97 544.599,1228.46 566.772,1242.19C579.476,1250.05 580.843,1229.31 612.172,1235.44C636.614,1240.23 631.852,1194.76 668.611,1156.7C688.837,1135.76 689.549,1109.06 684.364,1101.62Z" style="fill:rgb(206,74,191);fill-rule:nonzero;"/>
            </g>
            <g transform="matrix(1,0,0,1,-25.8027,246.968)">
                <path d="M614.852,1237.82C618.776,1237.82 632.035,1235.78 640.861,1209.63C650.454,1181.2 667.189,1161.27 667.357,1161.07C668.096,1160.2 667.989,1158.9 667.118,1158.16C666.246,1157.42 664.942,1157.53 664.203,1158.4C663.496,1159.23 646.787,1179.14 636.943,1208.31C627.909,1235.07 614.47,1233.69 614.339,1233.67C613.2,1233.53 612.174,1234.31 612.017,1235.43C611.86,1236.55 612.621,1237.59 613.742,1237.76C613.836,1237.77 614.225,1237.82 614.852,1237.82Z" style="fill:rgb(165,35,162);fill-rule:nonzero;"/>
            </g>
            <g transform="matrix(1,0,0,1,-25.8027,246.968)">
                <path d="M715.297,1107.81C715.297,1107.81 724.052,1110.99 727.847,1116.42C727.847,1116.42 726.748,1124.15 721.068,1126.96C714.66,1130.13 708.139,1118.38 708.139,1118.38C708.139,1118.38 706.741,1128.63 698.822,1127.93C690.903,1127.22 675.854,1115.61 671.103,1100.99C671.103,1100.99 680.729,1099.33 684.364,1101.62L715.297,1107.81Z" style="fill:rgb(255,210,210);fill-rule:nonzero;"/>
            </g>
            <g transform="matrix(1,0,0,1,-25.8027,246.968)">
                <path d="M716.507,1099.09L715.297,1107.81C712.152,1121.55 688.391,1108.3 684.676,1101.61C684.676,1101.61 685.793,1096.59 686.181,1092.09L716.507,1099.09Z" style="fill:rgb(249,147,112);fill-rule:nonzero;"/>
            </g>
            <g transform="matrix(1,0,0,1,-25.8027,246.968)">
                <path d="M686.959,1060.11C686.97,1060.65 687.001,1061.2 687.063,1061.74C687.833,1061.35 687.523,1080.95 685.865,1095C698.355,1102.57 713.394,1101.69 716.155,1101.46C718.566,1083.69 718.865,1067.29 717.464,1056.79C714.166,1038.93 686.351,1041.98 686.959,1060.11Z" style="fill:rgb(229,125,97);fill-rule:nonzero;"/>
            </g>
            <g transform="matrix(1,0,0,1,-25.8027,246.968)">
                <path d="M666.748,1049.37C669.18,1063.19 674.083,1078.73 685.158,1087.74L685.176,1087.74C689.65,1091.35 695.071,1093.6 700.797,1094.65C732.948,1103.44 770.768,1064.77 744.974,1038.09C735.671,1029.75 733.508,1014.75 726.068,1006.42C715.202,991.132 691.861,992.272 679.431,1005.04C668.198,1016.59 664.526,1032.34 666.748,1049.37Z" style="fill:rgb(249,147,112);fill-rule:nonzero;"/>
            </g>
            <g transform="matrix(1,0,0,1,-25.8027,246.968)">
                <path d="M719.504,1040.06C720.737,1037.64 716.898,1035.76 715.736,1038.22C714.503,1040.64 718.342,1042.52 719.504,1040.06Z" style="fill:rgb(193,98,86);fill-rule:nonzero;"/>
            </g>
            <g transform="matrix(1,0,0,1,-25.8027,246.968)">
                <path d="M737.094,1036.85C738.327,1034.42 734.488,1032.54 733.327,1035C732.093,1037.43 735.933,1039.31 737.094,1036.85Z" style="fill:rgb(193,98,86);fill-rule:nonzero;"/>
            </g>
            <g transform="matrix(1,0,0,1,-25.8027,246.968)">
                <path d="M731.902,1055.09C730.611,1055.11 727.777,1055.64 727.826,1053.89C727.954,1053.47 728.401,1053.23 728.817,1053.36C731.491,1054.17 735.24,1052.78 735.737,1051.57C735.911,1051.15 735.334,1050.74 734.819,1050.47C730.338,1048.3 724.395,1035.87 728.502,1038.72C728.533,1038.8 731.565,1046.97 735.555,1049.06C740.062,1052.08 735.444,1054.53 731.902,1055.09Z" style="fill:rgb(193,98,86);fill-rule:nonzero;"/>
            </g>
            <g transform="matrix(1,0,0,1,-25.8027,246.968)">
                <path d="M666.748,1049.37C669.18,1063.19 674.083,1078.73 685.158,1087.74L685.176,1087.74C679.002,1080.3 674.977,1063.51 674.977,1063.51L677.736,1055.98C725.622,1039.76 720.947,1001.04 720.947,1001.04C691.468,977.681 659.968,1017.74 666.748,1049.37Z" style="fill:rgb(229,125,97);fill-rule:nonzero;"/>
            </g>
            <g transform="matrix(1,0,0,1,-25.8027,246.968)">
                <path d="M716.228,997.448C716.228,997.448 720.199,1035.86 677.37,1052.12L661.795,1043.82C646.297,1014.47 673.42,970.298 716.228,997.448Z" style="fill:rgb(102,41,72);fill-rule:nonzero;"/>
            </g>
            <g transform="matrix(1,0,0,1,-25.8027,246.968)">
                <path d="M665.361,986.825C675.864,1022.95 717.947,1011.4 708.532,974.977C698.029,938.851 655.947,950.4 665.361,986.825Z" style="fill:rgb(102,41,72);fill-rule:nonzero;"/>
            </g>
            <g transform="matrix(1,0,0,1,-25.8027,246.968)">
                <path d="M658.049,1056.49C661.403,1072.12 681.075,1067.66 677.369,1052.12C674.015,1036.5 654.343,1040.95 658.049,1056.49Z" style="fill:rgb(249,147,112);fill-rule:nonzero;"/>
            </g>
            <g transform="matrix(1,0,0,1,-25.8027,246.968)">
                <path d="M663.186,1059.67C659.878,1056.3 661.065,1049.4 662.755,1048.19C665.858,1045.66 671.477,1046.92 671.083,1048.51C670.107,1050.1 666.88,1046.8 663.848,1049.34C660.74,1051.7 665.039,1058.32 663.186,1059.67Z" style="fill:rgb(193,98,86);fill-rule:nonzero;"/>
            </g>
            <g transform="matrix(1,0,0,1,-25.8027,246.968)">
                <path d="M670.58,1058.45C668.956,1058.39 668.277,1052.5 662.033,1051.96C661.595,1051.93 661.259,1051.56 661.282,1051.12C665.611,1047.77 673.549,1058.74 670.58,1058.45Z" style="fill:rgb(193,98,86);fill-rule:nonzero;"/>
            </g>
            <g transform="matrix(1,0,0,1,-25.8027,246.968)">
                <path d="M666.829,1062.6C666.828,1064.91 670.46,1064.86 670.392,1062.55C670.393,1060.23 666.761,1060.29 666.829,1062.6Z" style="fill:rgb(244,212,190);fill-rule:nonzero;"/>
            </g>
            <g transform="matrix(1,0,0,1,-25.8027,246.968)">
                <path d="M727.973,1059.51L727.983,1059.51L727.973,1059.51ZM724.113,1058.97C723.21,1059.63 723.194,1061.15 724.078,1062.36C724.524,1062.98 725.127,1063.41 725.774,1063.59C726.363,1063.74 726.91,1063.66 727.32,1063.37C728.224,1062.71 728.24,1061.18 727.356,1059.97C726.91,1059.36 726.307,1058.93 725.66,1058.75C725.461,1058.7 725.267,1058.67 725.082,1058.67C724.718,1058.67 724.386,1058.77 724.113,1058.97ZM725.369,1065.08C724.382,1064.82 723.478,1064.17 722.824,1063.28C721.438,1061.38 721.605,1058.88 723.199,1057.72C724,1057.13 725.02,1056.97 726.065,1057.25C727.052,1057.52 727.956,1058.16 728.61,1059.06C729.996,1060.96 729.829,1063.45 728.235,1064.62C727.691,1065.02 727.046,1065.22 726.36,1065.22C726.036,1065.22 725.704,1065.17 725.369,1065.08Z" style="fill:rgb(193,98,86);fill-rule:nonzero;"/>
            </g>
            <g transform="matrix(1,0,0,1,-25.8027,246.968)">
                <path d="M710.766,1035.68C711.009,1035.68 711.248,1035.56 711.399,1035.35C714.223,1031.37 719.688,1031.32 719.743,1031.32C720.171,1031.32 720.519,1030.98 720.52,1030.55C720.521,1030.12 720.175,1029.77 719.747,1029.77L719.739,1029.77C719.38,1029.77 713.4,1029.85 710.134,1034.45C709.886,1034.8 709.969,1035.29 710.318,1035.54C710.454,1035.63 710.611,1035.68 710.766,1035.68Z" style="fill:rgb(193,98,86);fill-rule:nonzero;"/>
            </g>
            <g transform="matrix(1,0,0,1,-25.8027,246.968)">
                <path d="M727.397,1030.2C727.508,1030.2 727.622,1030.18 727.729,1030.13C732.574,1027.82 736.323,1030.06 736.362,1030.09C736.727,1030.31 737.204,1030.19 737.428,1029.83C737.652,1029.47 737.537,1028.99 737.171,1028.76C736.99,1028.65 732.66,1026.07 727.063,1028.73C726.677,1028.91 726.512,1029.37 726.695,1029.76C726.828,1030.04 727.107,1030.2 727.397,1030.2Z" style="fill:rgb(193,98,86);fill-rule:nonzero;"/>
            </g>
        </g>
    </g>
</svg>
