<?xml version="1.0" encoding="UTF-8" standalone="no"?><!DOCTYPE svg PUBLIC "-//W3C//DTD SVG 1.1//EN" "http://www.w3.org/Graphics/SVG/1.1/DTD/svg11.dtd"><svg width="100%" height="100%" viewBox="0 0 569 526" version="1.1" xmlns="http://www.w3.org/2000/svg" xmlns:xlink="http://www.w3.org/1999/xlink" xml:space="preserve" xmlns:serif="http://www.serif.com/" style="fill-rule:evenodd;clip-rule:evenodd;stroke-linejoin:round;stroke-miterlimit:2;"><g><path d="M60.562,392.291c-71.358,-123.595 -28.948,-281.872 94.647,-353.229c123.595,-71.358 281.872,-28.948 353.229,94.647c71.358,123.595 28.948,281.872 -94.647,353.229c-123.595,71.358 -281.872,28.948 -353.229,-94.647Zm64.3,-37.124c-50.868,-88.107 -20.635,-200.936 67.471,-251.805c88.107,-50.868 200.936,-20.635 251.805,67.471c50.868,88.107 20.635,200.936 -67.471,251.805c-88.107,50.868 -200.936,20.635 -251.805,-67.471Z" style="fill:#00e8ff;fill-opacity:0.69;"/><path d="M245.139,453.287c7.742,13.41 6.35,30.218 -3.494,42.171c-9.844,11.954 -26.072,16.543 -40.719,11.516c-57.22,-19.495 -107.903,-58.996 -140.475,-115.412c-32.572,-56.416 -41.439,-120.059 -29.703,-179.359c2.968,-15.195 15.054,-26.951 30.325,-29.499c15.27,-2.548 30.519,4.648 38.259,18.056c0.009,-0.003 0.009,-0.001 0.01,0c4.482,7.763 5.998,16.887 4.268,25.682c-8.413,42.309 -2.103,87.734 21.142,127.996c23.245,40.262 59.429,68.438 100.274,82.312c8.481,2.899 15.624,8.774 20.105,16.536c0.006,-0.002 0.007,-0 0.008,0.001Z" style="fill:#0069ff;"/></g></svg>