<?xml version="1.0" encoding="UTF-8" standalone="no"?>
<!DOCTYPE svg PUBLIC "-//W3C//DTD SVG 1.1//EN" "http://www.w3.org/Graphics/SVG/1.1/DTD/svg11.dtd">
<svg width="100%" height="100%" viewBox="0 0 262 227" version="1.1" xmlns="http://www.w3.org/2000/svg" xmlns:xlink="http://www.w3.org/1999/xlink" xml:space="preserve" xmlns:serif="http://www.serif.com/" style="fill-rule:evenodd;clip-rule:evenodd;stroke-linejoin:round;stroke-miterlimit:2;">
    <g transform="matrix(0.0895997,0,0,0.0895997,118.745,101.252)">
        <g transform="matrix(1.28617,0,0,1.28617,-2988.65,-2559.09)">
            <path d="M1672.6,1142.73L1383.87,2358.5L1606.35,2723.17L2413.16,2914.78C2444.28,2922.17 2475.48,2902.94 2482.87,2871.82L2828.33,1417.21L1672.6,1142.73Z" style="fill:white;fill-rule:nonzero;"/>
        </g>
        <g transform="matrix(1.28617,0,0,1.28617,-2988.65,-2559.09)">
            <path d="M1607.94,2720.98L2413.74,2912.35C2428.13,2915.76 2443,2913.38 2455.6,2905.61C2468.2,2897.85 2477.02,2885.65 2480.44,2871.25L2825.32,1419.06L1674.46,1145.74L1386.54,2358.07L1607.94,2720.98ZM2426.66,2918.87C2421.97,2918.87 2417.26,2918.32 2412.58,2917.21L1604.76,2725.36L1381.2,2358.92L1381.44,2357.92L1670.75,1139.72L1673.18,1140.3L2831.34,1415.35L2830.76,1417.78L2485.31,2872.4C2481.58,2888.1 2471.96,2901.41 2458.23,2909.87C2448.58,2915.81 2437.71,2918.87 2426.66,2918.87Z" style="fill:rgb(0,0,114);fill-rule:nonzero;"/>
        </g>
        <g transform="matrix(1.28617,0,0,1.28617,-2988.65,-2559.09)">
            <path d="M1617.81,2707.39L2417.32,2897.27C2427.69,2899.73 2438.4,2898.01 2447.47,2892.42C2456.55,2886.83 2462.9,2878.04 2465.36,2867.66L2806.66,1430.56L1685.95,1164.4L1403.09,2355.45L1617.81,2707.39ZM2426.69,2934.37C2420.8,2934.37 2414.87,2933.68 2409,2932.29L1602.19,2740.68C1597.52,2739.57 1593.49,2736.64 1590.99,2732.55L1368.51,2367.87C1366.03,2363.82 1365.26,2358.96 1366.36,2354.34L1655.09,1138.57C1656.19,1133.93 1659.1,1129.91 1663.16,1127.41C1667.22,1124.9 1672.12,1124.12 1676.76,1125.22L2832.49,1399.69C2837.14,1400.8 2841.15,1403.7 2843.65,1407.76C2846.16,1411.83 2846.94,1416.72 2845.84,1421.36L2500.38,2875.98C2495.7,2895.71 2483.61,2912.43 2466.36,2923.06C2454.23,2930.53 2440.58,2934.37 2426.69,2934.37Z" style="fill:rgb(0,0,114);fill-rule:nonzero;"/>
        </g>
        <g transform="matrix(1.28617,0,0,1.28617,-2988.65,-2559.09)">
            <path d="M1420.68,2385.23L1599.15,2677.77L1641.01,2501.49C1644.85,2485.32 1642.16,2468.63 1633.45,2454.48C1624.73,2440.34 1611.03,2430.43 1594.86,2426.59L1420.68,2385.23ZM1606.35,2740.67C1600.31,2740.67 1594.62,2737.55 1591.41,2732.29L1368.93,2367.61C1365.25,2361.58 1365.56,2353.93 1369.71,2348.21C1373.86,2342.5 1381.04,2339.85 1387.91,2341.47L1602.95,2392.54C1628.21,2398.54 1649.63,2414.02 1663.25,2436.13C1676.87,2458.23 1681.06,2484.32 1675.06,2509.58L1623.38,2727.21C1621.74,2734.11 1616.1,2739.34 1609.09,2740.46C1608.18,2740.6 1607.26,2740.67 1606.35,2740.67Z" style="fill:rgb(0,0,114);fill-rule:nonzero;"/>
        </g>
        <g transform="matrix(1.28617,0,0,1.28617,-2988.65,-2559.09)">
            <path d="M1762.15,2760.03L1688.25,2742.03L1623.6,2726.28L1627.54,2709.7L1766.28,2742.65L1762.15,2760.03Z" style="fill:rgb(0,0,114);fill-rule:nonzero;"/>
        </g>
        <g transform="matrix(1.28617,0,0,1.28617,-2988.65,-2559.09)">
            <path d="M1623.6,2726.28L1610.85,2723.18L1628.8,2644.63L1661.3,2502.68L1675.82,2506.13C1675.59,2507.28 1675.34,2508.43 1675.06,2509.58L1627.54,2709.7L1623.6,2726.28Z" style="fill:rgb(0,0,114);fill-rule:nonzero;"/>
        </g>
        <g transform="matrix(1.28617,0,0,1.28617,-2988.65,-2559.09)">
            <path d="M2786.08,1571.95L2773.78,1569.03L2799.48,1460.8L2811.79,1463.73L2786.08,1571.95ZM1653.07,1302.87L1635.56,1298.71L1661.26,1190.49L1678.77,1194.65L1653.07,1302.87Z" style="fill:rgb(0,0,114);fill-rule:nonzero;"/>
        </g>
        <g transform="matrix(1.28617,0,0,1.28617,-2988.65,-2559.09)">
            <path d="M1735.06,1491.37L2341.94,1635.49C2351.34,1637.73 2360.77,1631.91 2363.01,1622.51C2365.24,1613.11 2359.43,1603.67 2350.02,1601.44L1743.15,1457.31C1733.74,1455.08 1724.31,1460.89 1722.08,1470.3C1719.84,1479.7 1725.65,1489.13 1735.06,1491.37Z" style="fill:rgb(0,0,114);fill-rule:nonzero;"/>
        </g>
        <g transform="matrix(1.28617,0,0,1.28617,-2988.65,-2559.09)">
            <path d="M1578.64,2199.84L2185.52,2343.96C2194.92,2346.2 2204.36,2340.38 2206.59,2330.98C2208.82,2321.58 2203.01,2312.14 2193.61,2309.91L1586.73,2165.78C1577.32,2163.55 1567.89,2169.36 1565.66,2178.77C1563.42,2188.17 1569.24,2197.6 1578.64,2199.84Z" style="fill:rgb(0,0,114);fill-rule:nonzero;"/>
        </g>
        <g transform="matrix(1.28617,0,0,1.28617,-2988.65,-2559.09)">
            <path d="M1687.03,1655.17L2478.01,1847.53C2487.4,1849.81 2496.86,1844.05 2499.15,1834.66C2501.43,1825.27 2495.67,1815.8 2486.28,1813.52L1695.3,1621.16C1685.91,1618.88 1676.44,1624.64 1674.16,1634.03C1671.87,1643.42 1677.64,1652.89 1687.03,1655.17Z" style="fill:rgb(0,0,114);fill-rule:nonzero;"/>
        </g>
        <g transform="matrix(1.28617,0,0,1.28617,-2988.65,-2559.09)">
            <path d="M1650.77,1828.85L2441.75,2021.2C2451.14,2023.48 2460.6,2017.72 2462.89,2008.33C2465.17,1998.94 2459.41,1989.48 2450.02,1987.19L1659.04,1794.84C1649.65,1792.56 1640.19,1798.32 1637.9,1807.71C1635.62,1817.1 1641.38,1826.56 1650.77,1828.85Z" style="fill:rgb(0,0,114);fill-rule:nonzero;"/>
        </g>
        <g transform="matrix(1.28617,0,0,1.28617,-2988.65,-2559.09)">
            <path d="M3368.18,2748.75L2827.91,2064.04C2821,2055.28 2813.34,2047.19 2805.01,2039.94L2804.98,2039.9C2785.95,2023.13 2763.56,2010.42 2739.13,2002.69L2596,1957.48L2512.2,1930.94C2488.13,1923.37 2464.03,1942.38 2465.8,1967.55L2472.08,2055.26L2482.77,2204.97C2484.47,2228.28 2490.56,2250.93 2500.6,2271.73L2500.63,2271.76C2506.38,2283.73 2513.48,2295.07 2521.78,2305.59L3059.92,2987.59C3126.76,3072.3 3252.57,3089.2 3336.87,3021.85C3378.54,2988.53 3402.98,2941.6 3408.78,2892.38C3414.59,2842.83 3401.54,2791.02 3368.18,2748.75Z" style="fill:rgb(255,190,6);fill-rule:nonzero;"/>
        </g>
        <g transform="matrix(1.28617,0,0,1.28617,-2988.65,-2559.09)">
            <path d="M3368.18,2748.75L3318.81,2686.18L3012.69,2927.73L3059.92,2987.59C3126.76,3072.3 3252.57,3089.2 3336.87,3021.85C3378.54,2988.53 3402.98,2941.6 3408.78,2892.38C3414.59,2842.83 3401.54,2791.02 3368.18,2748.75Z" style="fill:rgb(254,74,39);fill-rule:nonzero;"/>
        </g>
        <g transform="matrix(1.28617,0,0,1.28617,-2988.65,-2559.09)">
            <path d="M3016.2,2928.15L3061.88,2986.04C3094.01,3026.76 3142.36,3053.56 3194.53,3059.55C3245.89,3065.44 3295.92,3051.36 3335.31,3019.89C3375.12,2988.06 3400.33,2942.67 3406.3,2892.08C3412.28,2840.99 3398.05,2790.64 3366.22,2750.3L3318.4,2689.69L3016.2,2928.15ZM3217.41,3065.86C3209.64,3065.86 3201.82,3065.42 3193.96,3064.51C3140.48,3058.37 3090.91,3030.9 3057.96,2989.14L3009.18,2927.32L3319.23,2682.67L3370.15,2747.2C3402.8,2788.59 3417.41,2840.25 3411.26,2892.67C3405.14,2944.57 3379.28,2991.13 3338.44,3023.8C3304.02,3051.3 3261.73,3065.86 3217.41,3065.86Z" style="fill:rgb(0,0,114);fill-rule:nonzero;"/>
        </g>
        <g transform="matrix(1.28617,0,0,1.28617,-2988.65,-2559.09)">
            <path d="M2805.01,2039.94L2804.98,2039.9C2785.95,2023.13 2763.56,2010.42 2739.13,2002.69L2596,1957.48L2512.2,1930.94C2488.13,1923.37 2464.03,1942.38 2465.8,1967.55L2472.08,2055.26L2482.77,2204.97C2484.47,2228.28 2490.56,2250.93 2500.6,2271.73L2500.63,2271.76C2540.31,2295.17 2606.89,2288.74 2611.08,2220.28C2689.06,2251.87 2739.62,2205.6 2727.51,2128.42C2784.15,2148.87 2827.28,2092.87 2805.01,2039.94Z" style="fill:rgb(255,220,156);fill-rule:nonzero;"/>
        </g>
        <g transform="matrix(1.28617,0,0,1.28617,-2988.65,-2559.09)">
            <path d="M2502.71,2269.82C2526.46,2283.53 2556.53,2285.17 2577.79,2273.87C2596.24,2264.07 2606.81,2245.48 2608.37,2220.11L2608.6,2216.33L2612.11,2217.76C2647.67,2232.17 2679.04,2230.76 2700.41,2213.8C2721.74,2196.87 2730.64,2165.91 2724.82,2128.84L2724.1,2124.29L2728.43,2125.86C2751.93,2134.33 2775.42,2129.44 2791.28,2112.74C2808.6,2094.5 2813.06,2066.57 2802.7,2041.47C2784.09,2025.16 2762.32,2012.88 2738.3,2005.29L2511.37,1933.54C2500.78,1930.19 2489.71,1932.23 2481,1939.1C2472.29,1945.98 2467.74,1956.28 2468.52,1967.36L2485.48,2204.78C2487.14,2227.47 2492.94,2249.35 2502.71,2269.82ZM2545.66,2286.76C2529.89,2286.76 2513.45,2282.49 2499.25,2274.11L2498.15,2272.91C2487.87,2251.61 2481.78,2228.82 2480.05,2205.17L2463.09,1967.74C2462.19,1955.02 2467.63,1942.72 2477.63,1934.83C2487.62,1926.94 2500.86,1924.51 2513.01,1928.34L2739.95,2000.09C2764.76,2007.94 2787.25,2020.65 2806.78,2037.86L2807.52,2038.88C2818.97,2066.1 2814.15,2096.56 2795.23,2116.49C2778.8,2133.79 2754.99,2139.58 2730.82,2132.38C2735.58,2169.5 2725.84,2200.57 2703.79,2218.07C2681.52,2235.74 2649.57,2237.86 2613.51,2224.16C2610.43,2256.18 2593.92,2271.47 2580.35,2278.68C2570.16,2284.09 2558.12,2286.76 2545.66,2286.76Z" style="fill:rgb(57,0,117);fill-rule:nonzero;"/>
        </g>
        <g transform="matrix(1.28617,0,0,1.28617,-2988.65,-2559.09)">
            <path d="M3327.11,3006.59C3337.52,2986.03 3344.13,2963.9 3346.8,2941.28C3352.61,2891.73 3339.56,2839.93 3306.21,2797.65L3258.38,2737.05L3306.24,2699.29L3354.06,2759.89C3383.32,2796.99 3396.41,2843.29 3390.91,2890.26C3385.49,2936.18 3362.86,2977.42 3327.11,3006.59Z" style="fill:rgb(177,52,62);fill-rule:nonzero;"/>
        </g>
        <g transform="matrix(1.28617,0,0,1.28617,-2988.65,-2559.09)">
            <path d="M3170.11,2625.18L2778.56,2128.95C2784.66,2125.87 2790.28,2121.7 2795.23,2116.49C2806,2105.15 2812.2,2090.38 2813.43,2074.75C2813.55,2074.89 2813.66,2075.03 2813.78,2075.18L3217.97,2587.42L3170.11,2625.18Z" style="fill:rgb(178,133,39);fill-rule:nonzero;"/>
        </g>
        <g transform="matrix(1.28617,0,0,1.28617,-2988.65,-2559.09)">
            <path d="M2775.1,2124.57L2765.93,2112.94C2759.02,2104.19 2751.36,2096.09 2743.03,2088.84L2743,2088.8C2723.97,2072.04 2701.58,2059.32 2677.15,2051.6L2534.02,2006.39L2512.34,1999.52L2508.7,1948.73L2733.69,2019.87C2762.68,2029.03 2788.28,2045.76 2808.22,2068.5C2808.32,2085.04 2802.5,2100.92 2791.28,2112.74C2786.51,2117.77 2781.05,2121.72 2775.1,2124.57Z" style="fill:rgb(178,154,143);fill-rule:nonzero;"/>
        </g>
        <g transform="matrix(1.28617,0,0,1.28617,-2988.65,-2559.09)">
            <path d="M2778.56,2128.95L2775.1,2124.57C2781.05,2121.72 2786.51,2117.77 2791.28,2112.74C2802.5,2100.92 2808.32,2085.04 2808.22,2068.5C2810,2070.53 2811.74,2072.62 2813.43,2074.75C2812.2,2090.38 2806,2105.15 2795.23,2116.49C2790.28,2121.7 2784.66,2125.87 2778.56,2128.95Z" style="fill:rgb(40,0,116);fill-rule:nonzero;"/>
        </g>
        <g transform="matrix(1.28617,0,0,1.28617,-2988.65,-2559.09)">
            <path d="M3217.38,3045.37C3210.41,3045.37 3203.37,3044.97 3196.3,3044.16C3148.21,3038.63 3103.65,3013.95 3074.05,2976.44L3028.36,2918.55L3056.12,2896.65L3101.8,2954.55C3140.78,3003.94 3199.82,3030.28 3258.99,3030.28C3271.44,3030.28 3283.9,3029.11 3296.17,3026.75C3272.01,3038.99 3245.16,3045.37 3217.38,3045.37Z" style="fill:rgb(255,192,180);fill-rule:nonzero;"/>
        </g>
        <g transform="matrix(1.28617,0,0,1.28617,-2988.65,-2559.09)">
            <path d="M2940.09,2806.68L2535.9,2294.44C2533.53,2291.43 2531.28,2288.36 2529.13,2285.22C2534.64,2286.25 2540.19,2286.76 2545.66,2286.76C2554.69,2286.76 2563.5,2285.36 2571.54,2282.53L2662,2397.17C2752.03,2405.36 2826.62,2515.79 2822.28,2600.29L2967.85,2784.78L2940.09,2806.68Z" style="fill:rgb(255,232,168);fill-rule:nonzero;"/>
        </g>
        <g transform="matrix(1.28617,0,0,1.28617,-2988.65,-2559.09)">
            <path d="M2545.64,2281.35C2538.79,2281.35 2531.8,2280.48 2524.94,2278.77C2510.95,2256.13 2502.66,2230.51 2500.74,2203.68L2485.53,1991.03L2512.34,1999.52L2513.97,2022.21L2524.65,2171.93C2526.35,2195.23 2532.44,2217.88 2542.48,2238.68L2542.52,2238.72C2548.26,2250.68 2555.36,2262.02 2563.66,2272.54L2567.97,2277.99C2560.97,2280.24 2553.4,2281.35 2545.64,2281.35Z" style="fill:rgb(255,243,220);fill-rule:nonzero;"/>
        </g>
        <g transform="matrix(1.28617,0,0,1.28617,-2988.65,-2559.09)">
            <path d="M2545.66,2286.76C2540.19,2286.76 2534.64,2286.25 2529.13,2285.22C2527.68,2283.1 2526.28,2280.95 2524.94,2278.77C2531.8,2280.48 2538.79,2281.35 2545.64,2281.35C2553.4,2281.35 2560.97,2280.24 2567.97,2277.99L2571.54,2282.53C2563.5,2285.36 2554.69,2286.76 2545.66,2286.76Z" style="fill:rgb(186,166,207);fill-rule:nonzero;"/>
        </g>
        <g transform="matrix(1.28617,0,0,1.28617,-2988.65,-2559.09)">
            <path d="M2512.34,1999.52L2485.53,1991.03L2483.76,1966.25C2483.33,1960.31 2485.77,1954.79 2490.45,1951.1C2493.65,1948.57 2497.44,1947.27 2501.33,1947.27C2503.13,1947.27 2504.95,1947.55 2506.75,1948.11L2508.7,1948.73L2512.34,1999.52Z" style="fill:rgb(228,220,216);fill-rule:nonzero;"/>
        </g>
        <g transform="matrix(1.28617,0,0,1.28617,-2988.65,-2559.09)">
            <path d="M2501.33,1947.27C2497.44,1947.27 2493.65,1948.57 2490.45,1951.1C2485.77,1954.79 2483.33,1960.31 2483.76,1966.25L2500.74,2203.68C2503.11,2236.91 2515.27,2268.29 2535.9,2294.44L3074.05,2976.44C3103.65,3013.95 3148.21,3038.63 3196.3,3044.16C3243.58,3049.6 3289.49,3036.66 3325.64,3007.78C3362.24,2978.54 3385.42,2936.81 3390.91,2890.26C3396.41,2843.29 3383.32,2796.99 3354.06,2759.89L2813.78,2075.18C2793.14,2049.03 2765.45,2029.9 2733.69,2019.87L2506.75,1948.11C2504.95,1947.55 2503.13,1947.27 2501.33,1947.27ZM3217.43,3081.37C3209.07,3081.37 3200.65,3080.89 3192.2,3079.92C3134.65,3073.31 3081.28,3043.72 3045.79,2998.74L2507.65,2316.73C2482.53,2284.9 2467.73,2246.7 2464.83,2206.25L2447.85,1968.82C2446.58,1951.06 2454.17,1933.87 2468.16,1922.83C2482.14,1911.8 2500.62,1908.42 2517.61,1913.8L2744.54,1985.55C2783.2,1997.76 2816.91,2021.05 2842.03,2052.88L3382.31,2737.6C3417.53,2782.23 3433.28,2837.94 3426.66,2894.47C3420.05,2950.49 3392.16,3000.71 3348.11,3035.9C3310.92,3065.62 3265.25,3081.37 3217.43,3081.37Z" style="fill:rgb(0,0,114);fill-rule:nonzero;"/>
        </g>
        <g transform="matrix(1.28617,0,0,1.28617,-2988.65,-2559.09)">
            <path d="M3223.06,2586.59L2937.5,2811.91C2924.23,2822.38 2921.96,2841.64 2932.43,2854.92L2979.66,2914.78C2990.14,2928.06 3009.4,2930.33 3022.68,2919.85L3308.24,2694.53C3321.51,2684.05 3323.78,2664.79 3313.31,2651.52L3266.07,2591.66C3255.6,2578.38 3236.34,2576.11 3223.06,2586.59Z" style="fill:rgb(181,180,191);fill-rule:nonzero;"/>
        </g>
        <g transform="matrix(1.28617,0,0,1.28617,-2988.65,-2559.09)">
            <path d="M3241.98,2582.5C3235.69,2582.5 3229.62,2584.59 3224.61,2588.55L2939.05,2813.87C2933.15,2818.52 2929.42,2825.2 2928.54,2832.66C2927.66,2840.12 2929.74,2847.47 2934.4,2853.37L2981.63,2913.23C2986.28,2919.13 2992.95,2922.86 3000.41,2923.74C3007.88,2924.63 3015.23,2922.54 3021.13,2917.89L3306.69,2692.56C3312.59,2687.91 3316.32,2681.24 3317.2,2673.78C3318.08,2666.32 3316,2658.96 3311.34,2653.06L3264.11,2593.21C3259.46,2587.31 3252.79,2583.57 3245.33,2582.69C3244.21,2582.56 3243.09,2582.5 3241.98,2582.5ZM3003.77,2928.94C3002.46,2928.94 3001.15,2928.86 2999.83,2928.71C2991.04,2927.67 2983.18,2923.27 2977.7,2916.33L2930.47,2856.47C2924.99,2849.52 2922.54,2840.86 2923.58,2832.07C2924.61,2823.28 2929.01,2815.43 2935.96,2809.94L3221.51,2584.62C3228.46,2579.14 3237.13,2576.7 3245.91,2577.73C3254.7,2578.77 3262.56,2583.16 3268.04,2590.11L3315.27,2649.97C3320.75,2656.91 3323.2,2665.58 3322.16,2674.36C3321.13,2683.15 3316.73,2691.01 3309.78,2696.49L3024.22,2921.81C3018.32,2926.47 3011.18,2928.94 3003.77,2928.94Z" style="fill:rgb(0,0,114);fill-rule:nonzero;"/>
        </g>
        <g transform="matrix(1.28617,0,0,1.28617,-2988.65,-2559.09)">
            <path d="M3241.65,2743.88C3247.27,2733.46 3246.54,2720.27 3238.74,2710.38L3191.48,2650.48C3185.44,2642.83 3176.48,2638.84 3167.44,2638.84C3164.8,2638.84 3162.16,2639.18 3159.58,2639.86L3224.61,2588.55C3229.62,2584.59 3235.69,2582.5 3241.98,2582.5C3243.09,2582.5 3244.21,2582.56 3245.33,2582.69C3252.79,2583.57 3259.46,2587.31 3264.11,2593.21L3311.34,2653.06C3316,2658.96 3318.08,2666.32 3317.2,2673.78C3316.32,2681.24 3312.59,2687.91 3306.69,2692.56L3241.65,2743.88Z" style="fill:rgb(126,126,168);fill-rule:nonzero;"/>
        </g>
        <g transform="matrix(1.28617,0,0,1.28617,-2988.65,-2559.09)">
            <path d="M3233.68,2753.36C3237.06,2750.69 3239.73,2747.45 3241.65,2743.88L3306.69,2692.56C3312.59,2687.91 3316.32,2681.24 3317.2,2673.78C3318.08,2666.32 3316,2658.96 3311.34,2653.06L3264.11,2593.21C3259.46,2587.31 3252.79,2583.57 3245.33,2582.69C3244.21,2582.56 3243.09,2582.5 3241.98,2582.5C3235.69,2582.5 3229.62,2584.59 3224.61,2588.55L3159.58,2639.86C3155.66,2640.9 3151.89,2642.75 3148.5,2645.42L3223.08,2586.57C3228.7,2582.14 3235.38,2579.99 3242.02,2579.99C3251.06,2579.99 3260.02,2583.98 3266.06,2591.64L3313.32,2651.54C3323.79,2664.8 3321.52,2684.04 3308.26,2694.51L3233.68,2753.36Z" style="fill:rgb(0,0,114);fill-rule:nonzero;"/>
        </g>
        <g transform="matrix(1.28617,0,0,1.28617,-2988.65,-2559.09)">
            <path d="M3003.77,2923.94C3002.66,2923.94 3001.54,2923.88 3000.41,2923.74C2992.95,2922.86 2986.28,2919.13 2981.63,2913.23L2934.4,2853.37C2929.74,2847.47 2927.66,2840.12 2928.54,2832.66C2929.42,2825.2 2933.15,2818.52 2939.05,2813.87L2964.83,2793.52C2959.22,2803.94 2959.95,2817.14 2967.74,2827.02L3015.01,2886.92C3021.05,2894.58 3030,2898.57 3039.05,2898.57C3041.69,2898.57 3044.33,2898.23 3046.91,2897.54L3021.13,2917.89C3016.12,2921.84 3010.06,2923.94 3003.77,2923.94Z" style="fill:rgb(229,229,233);fill-rule:nonzero;"/>
        </g>
        <g transform="matrix(1.28617,0,0,1.28617,-2988.65,-2559.09)">
            <path d="M3003.72,2926.44C2994.68,2926.44 2985.72,2922.45 2979.68,2914.8L2932.42,2854.9C2921.95,2841.63 2924.22,2822.39 2937.48,2811.92L2972.81,2784.05C2969.43,2786.72 2966.76,2789.96 2964.83,2793.52L2939.05,2813.87C2933.15,2818.52 2929.42,2825.2 2928.54,2832.66C2927.66,2840.12 2929.74,2847.47 2934.4,2853.37L2981.63,2913.23C2986.28,2919.13 2992.95,2922.86 3000.41,2923.74C3001.54,2923.88 3002.66,2923.94 3003.77,2923.94C3010.06,2923.94 3016.12,2921.84 3021.13,2917.89L3046.91,2897.54C3050.83,2896.5 3054.6,2894.66 3057.98,2891.99L3022.66,2919.87C3017.04,2924.3 3010.36,2926.44 3003.72,2926.44Z" style="fill:rgb(166,166,206);fill-rule:nonzero;"/>
        </g>
        <g transform="matrix(1.28617,0,0,1.28617,-2988.65,-2559.09)">
            <path d="M3223.06,2586.58L3223.11,2586.58L3223.06,2586.58ZM3242.01,2598C3239.19,2598 3236.46,2598.94 3234.21,2600.71L2948.65,2826.04C2946,2828.13 2944.33,2831.12 2943.93,2834.47C2943.54,2837.82 2944.47,2841.12 2946.56,2843.77L2993.79,2903.63C2995.89,2906.28 2998.88,2907.96 3002.23,2908.35C3005.57,2908.73 3008.88,2907.81 3011.53,2905.72L3297.09,2680.4C3299.74,2678.31 3301.41,2675.31 3301.81,2671.96C3302.2,2668.62 3301.27,2665.31 3299.18,2662.67L3251.95,2602.8C3249.85,2600.16 3246.86,2598.48 3243.51,2598.08C3243.01,2598.02 3242.51,2598 3242.01,2598ZM3003.8,2944.44C3001.88,2944.44 2999.95,2944.33 2998.01,2944.1C2985.11,2942.58 2973.58,2936.13 2965.53,2925.92L2918.3,2866.07C2910.26,2855.88 2906.66,2843.16 2908.18,2830.26C2909.71,2817.36 2916.16,2805.82 2926.35,2797.78L3211.91,2572.45C3222.11,2564.41 3234.83,2560.8 3247.73,2562.34C3260.63,2563.86 3272.16,2570.31 3280.21,2580.51L3327.44,2640.37C3335.48,2650.56 3339.08,2663.28 3337.55,2676.18C3336.03,2689.08 3329.58,2700.61 3319.39,2708.66L3033.83,2933.98C3025.16,2940.82 3014.67,2944.44 3003.8,2944.44Z" style="fill:rgb(0,0,114);fill-rule:nonzero;"/>
        </g>
        <g transform="matrix(1.28617,0,0,1.28617,-2988.65,-2559.09)">
            <path d="M2545.69,2301.96C2527.17,2301.96 2507.99,2297 2491.49,2287.27C2489.65,2286.18 2488.01,2284.77 2486.66,2283.11C2480.4,2275.4 2481.55,2264.04 2489.27,2257.78C2495.49,2252.72 2504.05,2252.49 2510.42,2256.64C2529.48,2267.59 2554.12,2269.14 2570.63,2260.38C2584.32,2253.1 2591.89,2239.24 2593.12,2219.18C2593.47,2213.4 2596.59,2208.14 2601.49,2205.06C2606.39,2201.97 2612.47,2201.42 2617.84,2203.6C2648.09,2215.85 2674.04,2215.23 2690.91,2201.84C2707.81,2188.42 2714.67,2162.68 2709.73,2131.21C2708.74,2124.92 2711.14,2118.58 2716.05,2114.53C2720.96,2110.49 2727.64,2109.33 2733.62,2111.49C2751.51,2117.95 2768.48,2114.57 2780.2,2102.22C2793.38,2088.35 2796.64,2066.8 2788.56,2047.26C2785.32,2040.01 2787.19,2031.2 2793.64,2025.95C2801.36,2019.68 2812.67,2020.83 2818.95,2028.55L2818.98,2028.59C2820.05,2029.91 2820.94,2031.38 2821.6,2032.96C2835.41,2065.77 2829.4,2102.68 2806.31,2127.01C2790.6,2143.55 2769.65,2151.72 2747.28,2150.64C2747.22,2184.34 2735.36,2212.51 2713.28,2230.03C2690.38,2248.21 2659.67,2252.95 2625.3,2243.97C2619.19,2265.51 2606.2,2282.24 2587.51,2292.17C2575.18,2298.72 2560.65,2301.96 2545.69,2301.96Z" style="fill:rgb(0,0,114);fill-rule:nonzero;"/>
        </g>
        <g transform="matrix(1.28617,0,0,1.28617,-2988.65,-2559.09)">
            <path d="M2472.04,2073.25C2463.32,2073.25 2455.65,2066.89 2454.28,2058C2452.76,2048.17 2459.49,2038.98 2469.32,2037.46C2522.86,2029.19 2558.85,2000.79 2579.35,1950.64C2583.11,1941.44 2593.62,1937.01 2602.82,1940.79C2612.02,1944.55 2616.43,1955.06 2612.67,1964.26C2587.34,2026.21 2540.96,2062.81 2474.82,2073.03C2473.88,2073.18 2472.96,2073.25 2472.04,2073.25Z" style="fill:rgb(0,0,114);fill-rule:nonzero;"/>
        </g>
        <g transform="matrix(1.28617,0,0,1.28617,-2988.65,-2559.09)">
            <path d="M2596,1957.48L2512.18,1930.96C2488.14,1923.35 2464.01,1942.39 2465.81,1967.54L2472.08,2055.26C2531.81,2046.03 2573.14,2013.42 2596,1957.48Z" style="fill:rgb(0,0,114);fill-rule:nonzero;"/>
        </g>
    </g>
</svg>
