<?xml version="1.0" encoding="UTF-8" standalone="no"?>
<!DOCTYPE svg PUBLIC "-//W3C//DTD SVG 1.1//EN" "http://www.w3.org/Graphics/SVG/1.1/DTD/svg11.dtd">
<svg width="100%" height="100%" viewBox="0 0 262 227" version="1.1" xmlns="http://www.w3.org/2000/svg" xmlns:xlink="http://www.w3.org/1999/xlink" xml:space="preserve" xmlns:serif="http://www.serif.com/" style="fill-rule:evenodd;clip-rule:evenodd;stroke-linejoin:round;stroke-miterlimit:2;">
    <g transform="matrix(0.0895997,0,0,0.0895997,118.745,101.252)">
        <g transform="matrix(1,0,0,1,-1858.59,-1902.42)">
            <path d="M3210.05,1969.65C3210.05,2593.54 2704.29,3099.31 2080.4,3099.31C1456.51,3099.31 950.741,2593.54 950.741,1969.65C950.741,1345.76 1456.51,840 2080.4,840C2704.29,840 3210.05,1345.76 3210.05,1969.65Z" style="fill:rgb(93,252,160);fill-rule:nonzero;"/>
        </g>
        <g transform="matrix(1,0,0,1,-1858.59,-1902.42)">
            <path d="M2968.62,1429.5L2680.9,2641.1L2643.03,2800.53L2584.49,3046.95C2556.54,3164.48 2438.65,3237.14 2321.12,3209.19L1316.57,2970.67C1199.05,2942.72 1126.38,2824.83 1154.33,2707.3L1457.52,1430.62L1538.46,1089.85C1541.6,1076.7 1545.86,1064.07 1551.12,1052.12C1592.77,957.305 1697.4,902.79 1801.78,927.597L2806.32,1166.12C2923.85,1194.07 2996.51,1311.96 2968.62,1429.5Z" style="fill:rgb(151,108,255);fill-rule:nonzero;"/>
        </g>
        <g transform="matrix(1,0,0,1,-1858.59,-1902.42)">
            <path d="M2371.67,3197.66C2356.33,3197.66 2340.74,3195.89 2325.18,3192.19L1320.61,2953.62C1257.68,2938.67 1208.67,2895.5 1183.83,2840.7C1183.74,2840.3 1183.66,2839.9 1183.58,2839.49C1321.66,2804.3 1437.28,2712.34 1504.04,2590.03L1590.99,2732.55C1593.49,2736.64 1597.52,2739.57 1602.19,2740.68L2188.73,2879.98L1592.7,2789.83C1520.5,2891.93 1407.75,2918.13 1338.6,2924.08L2284.2,3148.58C2301.19,3152.61 2318.21,3154.55 2334.94,3154.55C2433.98,3154.55 2523.73,3086.89 2547.6,2986.33L2606.2,2739.88L2644.05,2580.43L2660.63,2510.61L2686.17,2542.97L2567.44,3042.92C2545.49,3135.3 2462.74,3197.67 2371.67,3197.66ZM2810.2,2020.7C2801.22,2013.46 2791.63,2007.01 2781.52,2001.42L2931.7,1368.88C2938.13,1341.81 2939.23,1314.73 2935.69,1288.75C2956.96,1330.99 2962.63,1378.88 2951.57,1425.44L2810.2,2020.7Z" style="fill:rgb(105,75,212);fill-rule:nonzero;"/>
        </g>
        <g transform="matrix(1,0,0,1,-1858.59,-1902.42)">
            <path d="M1183.83,2840.7C1183.66,2840.32 1183.49,2839.94 1183.31,2839.56C1183.39,2839.54 1183.5,2839.51 1183.58,2839.49C1183.66,2839.9 1183.74,2840.3 1183.83,2840.7Z" style="fill:rgb(187,174,236);fill-rule:nonzero;"/>
        </g>
        <g transform="matrix(1,0,0,1,-1858.59,-1902.42)">
            <path d="M1373.97,1950.61C1367.88,1945.76 1361.67,1941.05 1355.37,1936.48L1555.47,1093.88C1567.89,1041.59 1599.93,997.263 1645.69,969.064C1677.83,949.26 1714.03,939.074 1750.86,939.074C1766.46,939.074 1782.17,940.902 1797.73,944.601L2106.9,1018.03C2101.78,1021.45 2096.52,1024.48 2091.07,1027.12L1832.65,965.744C1815.67,961.713 1798.68,959.78 1781.96,959.78C1682.96,959.78 1593.2,1027.49 1569.32,1128.04L1373.97,1950.61ZM2875.96,1217.41C2863.71,1211.95 2850.78,1207.54 2837.25,1204.33L2501.35,1124.55C2499.39,1121.99 2497.52,1119.34 2495.74,1116.62C2494.2,1114.25 2492.72,1111.82 2491.31,1109.32L2802.3,1183.18C2829.36,1189.6 2854.29,1201.29 2875.96,1217.41Z" style="fill:rgb(208,189,255);fill-rule:nonzero;"/>
        </g>
        <g transform="matrix(1,0,0,1,-1858.59,-1902.42)">
            <path d="M2325.18,3192.19C2433.11,3217.83 2541.8,3150.87 2567.44,3042.92L2951.57,1425.44C2963.99,1373.14 2955.3,1319.15 2927.11,1273.39C2898.91,1227.63 2854.59,1195.59 2802.3,1183.18L1797.73,944.601C1745.43,932.17 1691.44,940.871 1645.69,969.064C1599.93,997.263 1567.89,1041.59 1555.47,1093.88L1171.34,2711.36C1145.7,2819.31 1212.67,2927.99 1320.61,2953.62L2325.18,3192.19ZM2371.68,3232.67C2353.66,3232.67 2335.37,3230.59 2317.09,3226.25L1312.53,2987.67C1185.8,2957.58 1107.19,2830 1137.29,2703.27L1521.42,1085.79C1536,1024.41 1573.61,972.37 1627.33,939.27C1681.04,906.169 1744.44,895.973 1805.82,910.549L2810.38,1149.12C2871.77,1163.7 2923.81,1201.32 2956.91,1255.03C2990,1308.74 3000.2,1372.14 2985.62,1433.52L2601.49,3051.01C2575.73,3159.46 2478.58,3232.67 2371.68,3232.67Z" style="fill:rgb(0,0,114);fill-rule:nonzero;"/>
        </g>
        <g transform="matrix(1,0,0,1,-1858.59,-1902.42)">
            <path d="M1548.25,2347.65C1548.25,2618.3 1328.85,2837.65 1058.25,2837.65C1008.75,2837.65 961.003,2830.3 915.953,2816.6L915.903,2816.6L598.853,2905.55L686.254,2666.5C612.704,2580.85 568.304,2469.45 568.304,2347.65C568.304,2077.05 787.653,1857.7 1058.25,1857.7C1328.85,1857.7 1548.25,2077.05 1548.25,2347.65Z" style="fill:rgb(25,175,249);fill-rule:nonzero;"/>
        </g>
        <g transform="matrix(1,0,0,1,-1858.59,-1902.42)">
            <path d="M652.396,2810.07L702.689,2672.51C704.864,2666.56 703.656,2659.9 699.53,2655.1C626.192,2569.7 585.805,2460.51 585.805,2347.65C585.805,2087.14 797.743,1875.2 1058.25,1875.2C1077.32,1875.2 1096.11,1876.34 1114.59,1878.54C1112.88,1878.52 1111.17,1878.51 1109.45,1878.51C838.853,1878.51 619.503,2097.86 619.503,2368.46C619.503,2490.26 663.902,2601.66 737.453,2687.31L698.072,2795.05L652.396,2810.07Z" style="fill:rgb(175,227,253);fill-rule:nonzero;"/>
        </g>
        <g transform="matrix(1,0,0,1,-1858.59,-1902.42)">
            <path d="M671.809,2866.9L698.072,2795.05L878.453,2735.76L878.503,2735.76C917.415,2745.75 958.114,2751.04 999.942,2751.04C1007.13,2751.04 1014.35,2750.88 1021.6,2750.56C1205.08,2742.49 1360.55,2634.53 1437.81,2481.46L1482.73,2555.1C1405.78,2711.94 1244.42,2820.15 1058.25,2820.15C1011.48,2820.15 965.321,2813.32 921.046,2799.86C919.393,2799.35 917.659,2799.1 915.927,2799.1C914.321,2799.1 912.716,2799.32 911.178,2799.75L671.809,2866.9Z" style="fill:rgb(17,122,208);fill-rule:nonzero;"/>
        </g>
        <g transform="matrix(1,0,0,1,-1858.59,-1902.42)">
            <path d="M627.02,2879.47L652.396,2810.07L698.072,2795.05L671.809,2866.9L627.02,2879.47Z" style="fill:rgb(122,158,211);fill-rule:nonzero;"/>
        </g>
        <g transform="matrix(1,0,0,1,-1858.59,-1902.42)">
            <path d="M1058.25,1875.2C797.743,1875.2 585.805,2087.14 585.805,2347.65C585.805,2460.51 626.192,2569.7 699.53,2655.1C703.656,2659.9 704.864,2666.56 702.689,2672.51L627.02,2879.47L911.178,2799.75C914.376,2798.85 917.86,2798.89 921.046,2799.86C965.321,2813.32 1011.48,2820.15 1058.25,2820.15C1318.79,2820.15 1530.75,2608.19 1530.75,2347.65C1530.75,2087.14 1318.79,1875.2 1058.25,1875.2ZM598.853,2923.05C594.049,2923.05 589.371,2921.07 586.012,2917.44C581.552,2912.62 580.162,2905.7 582.418,2899.54L666.339,2670.01C591.757,2579.48 550.804,2465.42 550.804,2347.65C550.804,2067.84 778.446,1840.2 1058.25,1840.2C1338.09,1840.2 1565.75,2067.84 1565.75,2347.65C1565.75,2627.48 1338.09,2855.15 1058.25,2855.15C1009.76,2855.15 961.852,2848.31 915.78,2834.81L603.581,2922.4C602.021,2922.83 600.43,2923.05 598.853,2923.05Z" style="fill:rgb(0,0,114);fill-rule:nonzero;"/>
        </g>
        <g transform="matrix(1,0,0,1,-1858.59,-1902.42)">
            <path d="M1672.6,1142.73L1383.87,2358.5L1606.35,2723.17L2413.16,2914.78C2444.28,2922.17 2475.48,2902.94 2482.87,2871.82L2828.33,1417.21L1672.6,1142.73Z" style="fill:white;fill-rule:nonzero;"/>
        </g>
        <g transform="matrix(1,0,0,1,-1858.59,-1902.42)">
            <path d="M1607.94,2720.98L2413.74,2912.35C2428.13,2915.76 2443,2913.38 2455.6,2905.61C2468.2,2897.85 2477.02,2885.65 2480.44,2871.25L2825.32,1419.06L1674.46,1145.74L1386.54,2358.07L1607.94,2720.98ZM2426.66,2918.87C2421.97,2918.87 2417.26,2918.32 2412.58,2917.21L1604.76,2725.36L1381.2,2358.92L1381.44,2357.92L1670.75,1139.72L1673.18,1140.3L2831.34,1415.35L2830.76,1417.78L2485.31,2872.4C2481.58,2888.1 2471.96,2901.41 2458.23,2909.87C2448.58,2915.81 2437.71,2918.87 2426.66,2918.87Z" style="fill:rgb(0,0,114);fill-rule:nonzero;"/>
        </g>
        <g transform="matrix(1,0,0,1,-1858.59,-1902.42)">
            <path d="M1617.81,2707.39L2417.32,2897.27C2427.69,2899.73 2438.4,2898.01 2447.47,2892.42C2456.55,2886.83 2462.9,2878.04 2465.36,2867.66L2806.66,1430.56L1685.95,1164.4L1403.09,2355.45L1617.81,2707.39ZM2426.69,2934.37C2420.8,2934.37 2414.87,2933.68 2409,2932.29L1602.19,2740.68C1597.52,2739.57 1593.49,2736.64 1590.99,2732.55L1368.51,2367.87C1366.03,2363.82 1365.26,2358.96 1366.36,2354.34L1655.09,1138.57C1656.19,1133.93 1659.1,1129.91 1663.16,1127.41C1667.22,1124.9 1672.12,1124.12 1676.76,1125.22L2832.49,1399.69C2837.14,1400.8 2841.15,1403.7 2843.65,1407.76C2846.16,1411.83 2846.94,1416.72 2845.84,1421.36L2500.38,2875.98C2495.7,2895.71 2483.61,2912.43 2466.36,2923.06C2454.23,2930.53 2440.58,2934.37 2426.69,2934.37Z" style="fill:rgb(0,0,114);fill-rule:nonzero;"/>
        </g>
        <g transform="matrix(1,0,0,1,-1858.59,-1902.42)">
            <path d="M1420.68,2385.23L1599.15,2677.77L1641.01,2501.49C1644.85,2485.32 1642.16,2468.63 1633.45,2454.48C1624.73,2440.34 1611.03,2430.43 1594.86,2426.59L1420.68,2385.23ZM1606.35,2740.67C1600.31,2740.67 1594.62,2737.55 1591.41,2732.29L1368.93,2367.61C1365.25,2361.58 1365.56,2353.93 1369.71,2348.21C1373.86,2342.5 1381.04,2339.85 1387.91,2341.47L1602.95,2392.54C1628.21,2398.54 1649.63,2414.02 1663.25,2436.13C1676.87,2458.23 1681.06,2484.32 1675.06,2509.58L1623.38,2727.21C1621.74,2734.11 1616.1,2739.34 1609.09,2740.46C1608.18,2740.6 1607.26,2740.67 1606.35,2740.67Z" style="fill:rgb(0,0,114);fill-rule:nonzero;"/>
        </g>
        <g transform="matrix(1,0,0,1,-1858.59,-1902.42)">
            <path d="M1599.31,2677.08L1421.36,2385.39L1594.86,2426.59C1611.03,2430.43 1624.73,2440.34 1633.45,2454.48C1642.16,2468.63 1644.85,2485.32 1641.01,2501.49L1599.31,2677.08Z" style="fill:rgb(189,192,210);fill-rule:nonzero;"/>
        </g>
        <g transform="matrix(1,0,0,1,-1858.59,-1902.42)">
            <path d="M1599.15,2677.77L1420.68,2385.23L1421.36,2385.39L1599.31,2677.08L1599.15,2677.77Z" style="fill:rgb(11,14,112);fill-rule:nonzero;"/>
        </g>
        <g transform="matrix(1,0,0,1,-1858.59,-1902.42)">
            <path d="M1603,2719.02L1386.8,2364.66L1596,2414.34C1616.07,2419.1 1633.08,2431.4 1643.9,2448.96C1654.72,2466.51 1658.05,2487.23 1653.28,2507.3L1603,2719.02ZM1420.68,2385.23L1599.15,2677.77L1599.31,2677.08L1641.01,2501.49C1644.85,2485.32 1642.16,2468.63 1633.45,2454.48C1624.73,2440.34 1611.03,2430.43 1594.86,2426.59L1421.36,2385.39L1420.68,2385.23Z" style="fill:rgb(11,14,112);fill-rule:nonzero;"/>
        </g>
        <g transform="matrix(1,0,0,1,-1858.59,-1902.42)">
            <path d="M1605.06,2732L1376.29,2357.02L1597.16,2409.47C1618.52,2414.55 1636.63,2427.64 1648.15,2446.33C1659.67,2465.03 1663.22,2487.09 1658.15,2508.45L1605.06,2732ZM1386.8,2364.66L1603,2719.02L1653.28,2507.3C1658.05,2487.23 1654.72,2466.51 1643.9,2448.96C1633.08,2431.4 1616.07,2419.1 1596,2414.34L1386.8,2364.66Z" style="fill:rgb(0,0,114);fill-rule:nonzero;"/>
        </g>
        <g transform="matrix(1,0,0,1,-1858.59,-1902.42)">
            <path d="M1766.28,2742.65L1627.54,2709.7L1675.06,2509.58C1675.34,2508.43 1675.59,2507.28 1675.82,2506.13L1737.05,2520.68C1779.9,2530.83 1806.4,2573.78 1796.2,2616.63L1766.28,2742.65Z" style="fill:rgb(178,178,212);fill-rule:nonzero;"/>
        </g>
        <g transform="matrix(1,0,0,1,-1858.59,-1902.42)">
            <path d="M1762.15,2760.03L1688.25,2742.03L1623.6,2726.28L1627.54,2709.7L1766.28,2742.65L1762.15,2760.03Z" style="fill:rgb(0,0,114);fill-rule:nonzero;"/>
        </g>
        <g transform="matrix(1,0,0,1,-1858.59,-1902.42)">
            <path d="M1623.6,2726.28L1610.85,2723.18L1628.8,2644.63L1661.3,2502.68L1675.82,2506.13C1675.59,2507.28 1675.34,2508.43 1675.06,2509.58L1627.54,2709.7L1623.6,2726.28Z" style="fill:rgb(0,0,114);fill-rule:nonzero;"/>
        </g>
        <g transform="matrix(1,0,0,1,-1858.59,-1902.42)">
            <path d="M2773.78,1569.03L1653.07,1302.87L1678.77,1194.65L2799.48,1460.8L2773.78,1569.03Z" style="fill:rgb(178,178,212);fill-rule:nonzero;"/>
        </g>
        <g transform="matrix(1,0,0,1,-1858.59,-1902.42)">
            <path d="M2786.08,1571.95L2773.78,1569.03L2799.48,1460.8L2811.79,1463.73L2786.08,1571.95ZM1653.07,1302.87L1635.56,1298.71L1661.26,1190.49L1678.77,1194.65L1653.07,1302.87Z" style="fill:rgb(0,0,114);fill-rule:nonzero;"/>
        </g>
        <g transform="matrix(1,0,0,1,-1858.59,-1902.42)">
            <path d="M2305.93,1038.98C2272.76,1031.1 2252.27,997.856 2260.15,964.685C2268.03,931.514 2301.28,911.029 2334.45,918.905C2367.62,926.783 2388.1,960.031 2380.23,993.202C2372.35,1026.37 2339.1,1046.86 2305.93,1038.98ZM2861.06,1322.93C2836.23,1282.57 2795.99,1251.72 2746.21,1239.89L2629.69,1212.22C2490.95,1179.27 2441.04,1113.46 2453.15,963.005C2463.48,898.124 2422.18,835.25 2357.19,819.815C2295.5,805.164 2233.66,838.312 2210.48,895.224C2210.35,895.513 2210.22,895.851 2210.1,896.139C2152.85,1042.85 2078.49,1081.32 1937.05,1047.73L1822.33,1020.48C1722.82,996.85 1623.06,1058.36 1599.44,1157.82L2883.55,1462.78C2895.36,1413.05 2885.89,1363.23 2861.06,1322.93Z" style="fill:rgb(181,180,191);fill-rule:nonzero;"/>
        </g>
        <g transform="matrix(1,0,0,1,-1858.59,-1902.42)">
            <path d="M2320.19,919.728C2293.39,919.728 2269.04,938.078 2262.58,965.261C2258.93,980.656 2261.48,996.55 2269.78,1010.01C2278.07,1023.47 2291.11,1032.89 2306.51,1036.55C2338.27,1044.11 2370.25,1024.39 2377.8,992.624C2385.34,960.861 2365.63,928.884 2333.87,921.335C2329.29,920.246 2324.7,919.728 2320.19,919.728ZM2320.19,1043.16C2315.29,1043.16 2310.32,1042.6 2305.35,1041.41C2288.66,1037.45 2274.51,1027.23 2265.52,1012.63C2256.52,998.035 2253.76,980.802 2257.72,964.109C2265.9,929.66 2300.58,908.274 2335.03,916.472C2369.47,924.655 2390.84,959.333 2382.66,993.776C2375.66,1023.25 2349.25,1043.16 2320.19,1043.16ZM1602.47,1155.97L2881.68,1459.77C2892.11,1413.07 2884.07,1365.04 2858.93,1324.24C2833.37,1282.7 2793.14,1253.61 2745.63,1242.33L2629.11,1214.66C2486.97,1180.9 2438.6,1112.64 2450.66,962.805C2460.84,898.845 2419.52,837.189 2356.61,822.248C2297.52,808.22 2235.68,839.982 2212.79,896.168L2212.4,897.116C2155.5,1042.91 2080.72,1084.41 1936.47,1050.16L1821.75,1022.91C1724.6,999.831 1626.78,1059.43 1602.47,1155.97ZM2885.41,1465.79L2882.97,1465.22L1596.43,1159.67L1597.01,1157.24C1620.91,1056.59 1722.23,994.142 1822.91,1018.05L1937.63,1045.29C2078.78,1078.82 2152,1038.15 2207.77,895.231L2208.17,894.25C2232.36,834.884 2295.27,802.521 2357.77,817.385C2423.2,832.927 2466.18,897.063 2455.62,963.401C2443.84,1109.92 2491.17,1176.76 2630.27,1209.79L2746.79,1237.46C2795.6,1249.06 2836.93,1278.94 2863.18,1321.62C2889.46,1364.26 2897.56,1414.61 2885.98,1463.36L2885.41,1465.79Z" style="fill:rgb(0,0,114);fill-rule:nonzero;"/>
        </g>
        <g transform="matrix(1,0,0,1,-1858.59,-1902.42)">
            <path d="M1635.93,1148.5L1621.39,1145.05C1625.88,1132.21 1631.81,1120.23 1638.97,1109.22C1654.25,1085.69 1675.14,1066.6 1699.32,1053.41C1723.51,1040.22 1750.95,1032.93 1779.38,1032.93C1792.2,1032.93 1805.23,1034.41 1818.29,1037.51L1933.01,1064.76C1965.18,1072.39 1994.44,1076.54 2021.48,1076.55L2021.52,1076.55C2045.34,1076.55 2067.47,1073.28 2087.94,1066.21C2103.29,1060.92 2117.67,1053.48 2130.96,1043.92C2140.94,1036.76 2150.32,1028.41 2159.14,1018.93C2172.37,1004.7 2184.35,987.925 2195.45,968.566C2206.51,949.246 2216.7,927.344 2226.33,902.677C2226.4,902.509 2226.46,902.374 2226.5,902.268L2226.57,902.086L2226.59,902.039L2226.6,902.029L2226.68,901.827C2235.07,881.234 2249.33,864.259 2267.03,852.395C2284.74,840.536 2305.82,833.855 2327.78,833.855C2336.14,833.856 2344.62,834.819 2353.14,836.842C2363.32,839.261 2372.79,843.009 2381.44,847.863C2381.15,847.792 2380.85,847.72 2380.56,847.651C2370.7,845.31 2360.85,844.189 2351.14,844.189C2300.11,844.189 2253.35,875.209 2233.87,923.046C2233.75,923.326 2233.57,923.644 2233.44,923.972C2188.84,1038.27 2133.86,1086.86 2044.85,1086.86C2019.62,1086.86 1991.66,1082.96 1960.43,1075.54L1845.72,1048.3C1831.33,1044.88 1816.93,1043.24 1802.76,1043.24C1731.82,1043.24 1666.55,1084.28 1635.93,1148.5ZM2343.62,1068.47C2338.89,1068.47 2334.09,1067.92 2329.29,1066.78C2321.41,1064.91 2314.25,1061.61 2308,1057.21C2312.1,1057.85 2316.2,1058.17 2320.25,1058.17C2329.23,1058.17 2338,1056.63 2346.22,1053.77C2358.55,1049.46 2369.66,1042.18 2378.54,1032.53C2387.41,1022.9 2394.03,1010.85 2397.25,997.246C2398.58,991.656 2399.28,986.039 2399.4,980.488C2405.14,992.682 2406.94,1006.85 2403.58,1021.01C2396.84,1049.39 2371.55,1068.47 2343.62,1068.47Z" style="fill:rgb(222,221,226);fill-rule:nonzero;"/>
        </g>
        <g transform="matrix(1,0,0,1,-1858.59,-1902.42)">
            <path d="M2305.93,1038.98L2309.97,1021.96C2304.85,1020.74 2300.21,1018.7 2296.08,1016.02C2289.89,1012 2284.85,1006.49 2281.37,1000.1C2277.88,993.713 2275.97,986.487 2275.96,979.008C2275.97,975.63 2276.35,972.197 2277.18,968.731C2278.4,963.604 2280.43,958.965 2283.11,954.835C2287.13,948.646 2292.64,943.605 2299.03,940.12C2305.42,936.635 2312.65,934.72 2320.13,934.72C2323.5,934.72 2326.94,935.108 2330.4,935.931C2335.53,937.15 2340.17,939.182 2344.3,941.864C2350.49,945.885 2355.53,951.395 2359.01,957.784C2362.5,964.175 2364.41,971.401 2364.41,978.88C2364.41,982.255 2364.02,985.691 2363.2,989.161C2361.98,994.284 2359.95,998.922 2357.27,1003.05C2353.25,1009.24 2347.74,1014.28 2341.35,1017.77C2334.96,1021.25 2327.73,1023.17 2320.25,1023.17C2316.88,1023.17 2313.44,1022.78 2309.97,1021.96L2305.93,1038.98L2301.89,1056.01C2308.02,1057.46 2314.18,1058.17 2320.25,1058.17C2329.23,1058.17 2338,1056.63 2346.22,1053.77C2358.55,1049.46 2369.66,1042.18 2378.54,1032.53C2387.41,1022.9 2394.03,1010.85 2397.25,997.246C2398.71,991.116 2399.41,984.952 2399.41,978.88C2399.41,969.9 2397.88,961.13 2395.01,952.909C2390.71,940.578 2383.43,929.468 2373.78,920.595C2364.14,911.725 2352.09,905.104 2338.49,901.879C2332.36,900.423 2326.2,899.719 2320.13,899.72C2311.15,899.719 2302.38,901.255 2294.16,904.122C2281.82,908.423 2270.71,915.707 2261.84,925.353C2252.97,934.991 2246.35,947.042 2243.12,960.642C2241.67,966.77 2240.97,972.937 2240.97,979.008C2240.97,987.987 2242.5,996.758 2245.37,1004.98C2249.67,1017.31 2256.95,1028.42 2266.6,1037.29C2276.24,1046.16 2288.29,1052.78 2301.89,1056.01L2305.93,1038.98ZM2861.06,1322.93L2875.96,1313.76C2862.38,1291.68 2844.58,1272.2 2823.35,1256.61C2802.12,1241.01 2777.45,1229.32 2750.26,1222.87L2633.73,1195.2C2603.3,1187.97 2577.75,1179.21 2556.78,1168.61C2541.05,1160.67 2527.89,1151.73 2516.94,1141.61C2508.72,1134.02 2501.71,1125.76 2495.74,1116.62C2486.8,1102.91 2480.14,1087.16 2475.65,1068.56C2471.16,1049.97 2468.9,1028.53 2468.9,1003.89C2468.9,991.54 2469.47,978.39 2470.59,964.409L2453.15,963.005L2470.43,965.758C2471.64,958.164 2472.23,950.583 2472.23,943.082C2472.23,910.378 2461.06,879.263 2441.62,854.351C2431.9,841.891 2420.09,830.968 2406.56,822.173C2393.03,813.377 2377.78,806.716 2361.23,802.789C2350.05,800.133 2338.83,798.854 2327.78,798.855C2298.7,798.857 2270.87,807.696 2247.55,823.316C2224.24,838.93 2205.36,861.388 2194.27,888.622L2210.48,895.224L2194.35,888.42C2194.23,888.72 2194.14,888.939 2194.07,889.097L2194,889.278L2193.98,889.325L2193.98,889.335L2193.8,889.778C2182.94,917.615 2171.55,941.134 2159.46,960.583C2150.4,975.174 2140.94,987.471 2131.04,997.695C2123.61,1005.37 2115.92,1011.88 2107.88,1017.36C2095.82,1025.59 2082.98,1031.55 2068.76,1035.55C2054.54,1039.54 2038.92,1041.55 2021.48,1041.55C1998.06,1041.56 1971.39,1037.9 1941.09,1030.7L1826.37,1003.46C1810.65,999.724 1794.9,997.928 1779.38,997.93C1733.47,997.932 1689.77,1013.62 1654.79,1040.92C1637.29,1054.58 1621.96,1071.15 1609.62,1090.14C1597.28,1109.13 1587.93,1130.54 1582.41,1153.78C1580.18,1163.18 1585.99,1172.61 1595.4,1174.85L2879.51,1479.81C2883.99,1480.87 2888.81,1480.1 2892.73,1477.68C2896.65,1475.26 2899.51,1471.31 2900.58,1466.83C2904.31,1451.12 2906.1,1435.37 2906.1,1419.86C2906.1,1381.72 2895.27,1345.09 2875.96,1313.75L2875.96,1313.76L2861.06,1322.93L2846.16,1332.11C2862.15,1358.07 2871.1,1388.36 2871.1,1419.86C2871.1,1432.67 2869.62,1445.69 2866.52,1458.74L2883.55,1462.78L2887.59,1445.76L1603.48,1140.8L1599.44,1157.82L1616.47,1161.86C1621.05,1142.56 1628.77,1124.9 1638.97,1109.22C1654.25,1085.69 1675.14,1066.6 1699.32,1053.41C1723.51,1040.22 1750.95,1032.93 1779.38,1032.93C1792.2,1032.93 1805.23,1034.41 1818.29,1037.51L1933.01,1064.76C1965.18,1072.39 1994.44,1076.54 2021.48,1076.55C2045.31,1076.55 2067.46,1073.28 2087.94,1066.21C2103.29,1060.92 2117.67,1053.48 2130.96,1043.92C2140.94,1036.76 2150.32,1028.41 2159.14,1018.93C2172.37,1004.7 2184.35,987.925 2195.45,968.566C2206.54,949.2 2216.75,927.241 2226.4,902.502L2210.1,896.139L2226.22,902.944C2226.35,902.644 2226.44,902.425 2226.5,902.268L2226.57,902.086L2226.59,902.039L2226.6,902.029L2226.68,901.827C2235.07,881.234 2249.33,864.259 2267.03,852.395C2284.74,840.535 2305.82,833.854 2327.78,833.855C2336.14,833.856 2344.62,834.819 2353.14,836.842C2365.75,839.837 2377.26,844.871 2387.49,851.518C2402.82,861.484 2415.27,875.108 2423.87,890.886C2432.48,906.666 2437.23,924.555 2437.23,943.082C2437.23,948.755 2436.78,954.489 2435.87,960.252L2435.7,961.6C2434.51,976.393 2433.9,990.47 2433.9,1003.89C2433.9,1035.61 2437.32,1063.7 2444.86,1088.71C2450.51,1107.46 2458.51,1124.44 2469.01,1139.57C2476.87,1150.92 2486.12,1161.21 2496.66,1170.45C2512.49,1184.31 2531.19,1195.78 2552.65,1205.39C2574.12,1215 2598.38,1222.77 2625.64,1229.25L2742.17,1256.92C2764.76,1262.29 2785.09,1271.94 2802.63,1284.82C2820.17,1297.7 2834.91,1313.82 2846.15,1332.1L2846.16,1332.11L2861.06,1322.93Z" style="fill:rgb(0,0,114);fill-rule:nonzero;"/>
        </g>
        <g transform="matrix(1,0,0,1,-1858.59,-1902.42)">
            <path d="M2380.78,1253.61C2350.25,1253.61 2307.73,1248.06 2261.63,1237.11C2174.31,1216.37 2107.19,1184.13 2111.71,1165.09C2113.1,1159.24 2120.77,1156.77 2133.26,1156.77C2161.36,1156.77 2213.89,1169.24 2274.33,1183.6C2361.65,1204.33 2432.44,1221.15 2427.91,1240.19C2425.78,1249.17 2408.07,1253.61 2380.78,1253.61Z" style="fill:rgb(200,199,207);fill-rule:nonzero;"/>
        </g>
        <g transform="matrix(1,0,0,1,-1858.59,-1902.42)">
            <path d="M1735.06,1491.37L2341.94,1635.49C2351.34,1637.73 2360.77,1631.91 2363.01,1622.51C2365.24,1613.11 2359.43,1603.67 2350.02,1601.44L1743.15,1457.31C1733.74,1455.08 1724.31,1460.89 1722.08,1470.3C1719.84,1479.7 1725.65,1489.13 1735.06,1491.37Z" style="fill:rgb(0,0,114);fill-rule:nonzero;"/>
        </g>
        <g transform="matrix(1,0,0,1,-1858.59,-1902.42)">
            <path d="M1578.64,2199.84L2185.52,2343.96C2194.92,2346.2 2204.36,2340.38 2206.59,2330.98C2208.82,2321.58 2203.01,2312.14 2193.61,2309.91L1586.73,2165.78C1577.32,2163.55 1567.89,2169.36 1565.66,2178.77C1563.42,2188.17 1569.24,2197.6 1578.64,2199.84Z" style="fill:rgb(0,0,114);fill-rule:nonzero;"/>
        </g>
        <g transform="matrix(1,0,0,1,-1858.59,-1902.42)">
            <path d="M1687.03,1655.17L2478.01,1847.53C2487.4,1849.81 2496.86,1844.05 2499.15,1834.66C2501.43,1825.27 2495.67,1815.8 2486.28,1813.52L1695.3,1621.16C1685.91,1618.88 1676.44,1624.64 1674.16,1634.03C1671.87,1643.42 1677.64,1652.89 1687.03,1655.17Z" style="fill:rgb(0,0,114);fill-rule:nonzero;"/>
        </g>
        <g transform="matrix(1,0,0,1,-1858.59,-1902.42)">
            <path d="M1019.58,2538.69L1060.21,2538.69C1074.12,2538.69 1085.39,2549.97 1085.39,2563.87L1085.39,2604.5C1085.39,2618.41 1074.12,2629.68 1060.21,2629.68L1019.58,2629.68C1005.68,2629.68 994.404,2618.41 994.404,2604.5L994.404,2563.87C994.404,2549.97 1005.68,2538.69 1019.58,2538.69ZM998.697,2434.83C998.697,2395.35 1008.14,2360.16 1045.05,2307.8C1087.11,2247.71 1098.27,2210.8 1098.27,2165.31C1098.27,2122.39 1081.1,2106.08 1051.06,2106.08C1021.01,2106.08 1003.85,2122.39 1003.85,2165.31L1003.85,2211.14C1003.85,2221.86 995.158,2230.55 984.442,2230.55L933.98,2230.55C923.263,2230.55 914.576,2221.86 914.576,2211.14L914.576,2171.32C914.576,2075.18 960.929,2020.25 1052.77,2020.25C1144.62,2020.25 1192.68,2075.18 1192.68,2171.32C1192.68,2223.68 1176.38,2267.46 1130.02,2329.26C1093.11,2379.04 1081.1,2408.22 1081.1,2438.27L1081.1,2445.26C1081.1,2459.41 1069.63,2470.88 1055.48,2470.88L1024.32,2470.88C1010.17,2470.88 998.697,2459.41 998.697,2445.26L998.697,2434.83Z" style="fill:rgb(151,108,255);fill-rule:nonzero;"/>
        </g>
        <g transform="matrix(1,0,0,1,-1858.59,-1902.42)">
            <path d="M1002.43,2622.93C997.487,2618.34 994.403,2611.79 994.403,2604.51L994.403,2563.87C994.403,2557.72 996.604,2552.09 1000.27,2547.72C996.607,2552.09 994.404,2557.72 994.404,2563.87L994.404,2604.5C994.404,2611.78 997.492,2618.34 1002.43,2622.93ZM1077.71,2253.92C1093.33,2221.96 1098.25,2195.54 1098.25,2165.31C1098.25,2141.17 1092.81,2125.43 1082.72,2116.3C1092.83,2125.43 1098.27,2141.16 1098.27,2165.31C1098.27,2195.53 1093.34,2221.96 1077.71,2253.92ZM953.053,2230.56L934.003,2230.56C923.253,2230.56 914.552,2221.86 914.552,2211.17L914.552,2171.31C914.552,2116.01 929.905,2074.35 960.418,2048.94C929.911,2074.36 914.576,2116.02 914.576,2171.32L914.576,2211.14C914.576,2221.86 923.263,2230.55 933.98,2230.55L953.031,2230.55C953.038,2230.55 953.045,2230.56 953.053,2230.56Z" style="fill:rgb(175,227,253);fill-rule:nonzero;"/>
        </g>
        <g transform="matrix(1,0,0,1,-1858.59,-1902.42)">
            <path d="M1036.65,2629.66L1019.6,2629.66C1012.96,2629.66 1006.92,2627.11 1002.43,2622.93C997.492,2618.34 994.404,2611.78 994.404,2604.5L994.404,2563.87C994.404,2557.72 996.607,2552.09 1000.27,2547.72C1004.88,2542.21 1011.82,2538.72 1019.6,2538.72L1060.2,2538.72C1065.65,2538.72 1070.7,2540.41 1074.8,2543.41L1051.35,2543.41C1037.45,2543.41 1026.15,2554.71 1026.15,2568.61L1026.15,2609.21C1026.15,2617.67 1030.3,2625.12 1036.65,2629.66ZM1041.2,2470.87L1024.3,2470.87C1010.15,2470.87 998.703,2459.41 998.703,2445.26L998.703,2434.81C998.703,2395.36 1008.15,2360.17 1045.05,2307.81C1059.17,2287.64 1069.81,2270.07 1077.71,2253.92C1093.34,2221.96 1098.27,2195.53 1098.27,2165.31C1098.27,2141.16 1092.83,2125.43 1082.72,2116.3C1080.5,2114.29 1078.06,2112.6 1075.4,2111.21C1077.75,2110.92 1080.25,2110.81 1082.8,2110.81C1112.85,2110.81 1130,2127.11 1130,2170.06C1130,2215.51 1118.85,2252.46 1076.8,2312.51C1039.9,2364.87 1030.45,2400.06 1030.45,2439.56L1030.45,2450.01C1030.45,2458.62 1034.7,2466.21 1041.2,2470.87ZM953.031,2230.55L933.98,2230.55C923.263,2230.55 914.576,2221.86 914.576,2211.14L914.576,2171.32C914.576,2116.02 929.911,2074.36 960.418,2048.94C982.953,2030.17 1013.76,2020.27 1052.75,2020.27C1069,2020.27 1083.9,2021.96 1097.4,2025.36C1093.25,2025.12 1088.95,2024.96 1084.55,2024.96C992.702,2024.96 946.353,2079.91 946.353,2176.06L946.353,2215.87C946.353,2221.75 948.944,2227 953.031,2230.55Z" style="fill:rgb(219,204,255);fill-rule:nonzero;"/>
        </g>
        <g transform="matrix(1,0,0,1,-1858.59,-1902.42)">
            <path d="M1650.77,1828.85L2441.75,2021.2C2451.14,2023.48 2460.6,2017.72 2462.89,2008.33C2465.17,1998.94 2459.41,1989.48 2450.02,1987.19L1659.04,1794.84C1649.65,1792.56 1640.19,1798.32 1637.9,1807.71C1635.62,1817.1 1641.38,1826.56 1650.77,1828.85Z" style="fill:rgb(0,0,114);fill-rule:nonzero;"/>
        </g>
        <g transform="matrix(1,0,0,1,-1858.59,-1902.42)">
            <path d="M1051.06,2088.58C1080.58,2088.58 1115.77,2101.89 1115.77,2165.31C1115.77,2218.45 1101.01,2258.37 1059.38,2317.83C1023.42,2368.86 1016.2,2400.42 1016.2,2434.83L1016.2,2445.27C1016.2,2449.74 1019.84,2453.39 1024.32,2453.39L1055.48,2453.39C1059.96,2453.39 1063.6,2449.74 1063.6,2445.27L1063.6,2438.27C1063.6,2402.69 1077.79,2370.32 1115.97,2318.83C1159.15,2261.26 1175.18,2221.3 1175.18,2171.32C1175.18,2082.69 1134,2037.75 1052.77,2037.75C972.684,2037.75 932.076,2082.69 932.076,2171.32L932.076,2211.14C932.076,2212.19 932.928,2213.04 933.978,2213.04L984.442,2213.04C985.492,2213.04 986.346,2212.19 986.346,2211.14L986.346,2165.31C986.346,2101.89 1021.54,2088.58 1051.06,2088.58ZM1055.48,2488.39L1024.32,2488.39C1000.54,2488.39 981.198,2469.04 981.198,2445.27L981.198,2434.83C981.198,2394.72 989.623,2356.05 1030.74,2297.72C1072.79,2237.65 1080.77,2204.84 1080.77,2165.31C1080.77,2126.77 1066.71,2123.58 1051.06,2123.58C1035.4,2123.58 1021.35,2126.77 1021.35,2165.31L1021.35,2211.14C1021.35,2231.49 1004.79,2248.04 984.442,2248.04L933.978,2248.04C913.632,2248.04 897.076,2231.49 897.076,2211.14L897.076,2171.32C897.076,2064.19 953.824,2002.75 1052.77,2002.75C1152.81,2002.75 1210.18,2064.19 1210.18,2171.32C1210.18,2229.05 1191.63,2276.28 1144.02,2339.76C1106.21,2390.76 1098.6,2415.28 1098.6,2438.27L1098.6,2445.27C1098.6,2469.04 1079.26,2488.39 1055.48,2488.39ZM1019.58,2556.19C1015.35,2556.19 1011.9,2559.64 1011.9,2563.87L1011.9,2604.5C1011.9,2608.74 1015.35,2612.18 1019.58,2612.18L1060.22,2612.18C1064.45,2612.18 1067.89,2608.74 1067.89,2604.5L1067.89,2563.87C1067.89,2559.64 1064.45,2556.19 1060.22,2556.19L1019.58,2556.19ZM1060.22,2647.18L1019.58,2647.18C996.049,2647.18 976.903,2628.03 976.903,2604.5L976.903,2563.87C976.903,2540.34 996.049,2521.19 1019.58,2521.19L1060.22,2521.19C1083.75,2521.19 1102.89,2540.34 1102.89,2563.87L1102.89,2604.5C1102.89,2628.03 1083.75,2647.18 1060.22,2647.18Z" style="fill:rgb(0,0,114);fill-rule:nonzero;"/>
        </g>
        <g transform="matrix(1,0,0,1,-1858.59,-1902.42)">
            <path d="M782.685,2561.62C732.939,2561.62 687.338,2501.52 679.143,2423.11C670.596,2341.34 705.971,2270.63 758.154,2265.17C760.307,2264.95 762.388,2264.84 764.386,2264.84C810.82,2264.84 816.409,2324.62 824.602,2403.01C833.149,2484.78 841.285,2555.83 789.102,2561.29C786.959,2561.51 784.816,2561.62 782.685,2561.62Z" style="fill:rgb(83,195,251);fill-rule:nonzero;"/>
        </g>
        <g transform="matrix(1,0,0,1,-1858.59,-1902.42)">
            <path d="M3368.18,2748.75L2827.91,2064.04C2821,2055.28 2813.34,2047.19 2805.01,2039.94L2804.98,2039.9C2785.95,2023.13 2763.56,2010.42 2739.13,2002.69L2596,1957.48L2512.2,1930.94C2488.13,1923.37 2464.03,1942.38 2465.8,1967.55L2472.08,2055.26L2482.77,2204.97C2484.47,2228.28 2490.56,2250.93 2500.6,2271.73L2500.63,2271.76C2506.38,2283.73 2513.48,2295.07 2521.78,2305.59L3059.92,2987.59C3126.76,3072.3 3252.57,3089.2 3336.87,3021.85C3378.54,2988.53 3402.98,2941.6 3408.78,2892.38C3414.59,2842.83 3401.54,2791.02 3368.18,2748.75Z" style="fill:rgb(255,190,6);fill-rule:nonzero;"/>
        </g>
        <g transform="matrix(1,0,0,1,-1858.59,-1902.42)">
            <path d="M3368.18,2748.75L3318.81,2686.18L3012.69,2927.73L3059.92,2987.59C3126.76,3072.3 3252.57,3089.2 3336.87,3021.85C3378.54,2988.53 3402.98,2941.6 3408.78,2892.38C3414.59,2842.83 3401.54,2791.02 3368.18,2748.75Z" style="fill:rgb(254,74,39);fill-rule:nonzero;"/>
        </g>
        <g transform="matrix(1,0,0,1,-1858.59,-1902.42)">
            <path d="M3016.2,2928.15L3061.88,2986.04C3094.01,3026.76 3142.36,3053.56 3194.53,3059.55C3245.89,3065.44 3295.92,3051.36 3335.31,3019.89C3375.12,2988.06 3400.33,2942.67 3406.3,2892.08C3412.28,2840.99 3398.05,2790.64 3366.22,2750.3L3318.4,2689.69L3016.2,2928.15ZM3217.41,3065.86C3209.64,3065.86 3201.82,3065.42 3193.96,3064.51C3140.48,3058.37 3090.91,3030.9 3057.96,2989.14L3009.18,2927.32L3319.23,2682.67L3370.15,2747.2C3402.8,2788.59 3417.41,2840.25 3411.26,2892.67C3405.14,2944.57 3379.28,2991.13 3338.44,3023.8C3304.02,3051.3 3261.73,3065.86 3217.41,3065.86Z" style="fill:rgb(0,0,114);fill-rule:nonzero;"/>
        </g>
        <g transform="matrix(1,0,0,1,-1858.59,-1902.42)">
            <path d="M2805.01,2039.94L2804.98,2039.9C2785.95,2023.13 2763.56,2010.42 2739.13,2002.69L2596,1957.48L2512.2,1930.94C2488.13,1923.37 2464.03,1942.38 2465.8,1967.55L2472.08,2055.26L2482.77,2204.97C2484.47,2228.28 2490.56,2250.93 2500.6,2271.73L2500.63,2271.76C2540.31,2295.17 2606.89,2288.74 2611.08,2220.28C2689.06,2251.87 2739.62,2205.6 2727.51,2128.42C2784.15,2148.87 2827.28,2092.87 2805.01,2039.94Z" style="fill:rgb(255,220,156);fill-rule:nonzero;"/>
        </g>
        <g transform="matrix(1,0,0,1,-1858.59,-1902.42)">
            <path d="M2502.71,2269.82C2526.46,2283.53 2556.53,2285.17 2577.79,2273.87C2596.24,2264.07 2606.81,2245.48 2608.37,2220.11L2608.6,2216.33L2612.11,2217.76C2647.67,2232.17 2679.04,2230.76 2700.41,2213.8C2721.74,2196.87 2730.64,2165.91 2724.82,2128.84L2724.1,2124.29L2728.43,2125.86C2751.93,2134.33 2775.42,2129.44 2791.28,2112.74C2808.6,2094.5 2813.06,2066.57 2802.7,2041.47C2784.09,2025.16 2762.32,2012.88 2738.3,2005.29L2511.37,1933.54C2500.78,1930.19 2489.71,1932.23 2481,1939.1C2472.29,1945.98 2467.74,1956.28 2468.52,1967.36L2485.48,2204.78C2487.14,2227.47 2492.94,2249.35 2502.71,2269.82ZM2545.66,2286.76C2529.89,2286.76 2513.45,2282.49 2499.25,2274.11L2498.15,2272.91C2487.87,2251.61 2481.78,2228.82 2480.05,2205.17L2463.09,1967.74C2462.19,1955.02 2467.63,1942.72 2477.63,1934.83C2487.62,1926.94 2500.86,1924.51 2513.01,1928.34L2739.95,2000.09C2764.76,2007.94 2787.25,2020.65 2806.78,2037.86L2807.52,2038.88C2818.97,2066.1 2814.15,2096.56 2795.23,2116.49C2778.8,2133.79 2754.99,2139.58 2730.82,2132.38C2735.58,2169.5 2725.84,2200.57 2703.79,2218.07C2681.52,2235.74 2649.57,2237.86 2613.51,2224.16C2610.43,2256.18 2593.92,2271.47 2580.35,2278.68C2570.16,2284.09 2558.12,2286.76 2545.66,2286.76Z" style="fill:rgb(57,0,117);fill-rule:nonzero;"/>
        </g>
        <g transform="matrix(1,0,0,1,-1858.59,-1902.42)">
            <path d="M3327.11,3006.59C3337.52,2986.03 3344.13,2963.9 3346.8,2941.28C3352.61,2891.73 3339.56,2839.93 3306.21,2797.65L3258.38,2737.05L3306.24,2699.29L3354.06,2759.89C3383.32,2796.99 3396.41,2843.29 3390.91,2890.26C3385.49,2936.18 3362.86,2977.42 3327.11,3006.59Z" style="fill:rgb(177,52,62);fill-rule:nonzero;"/>
        </g>
        <g transform="matrix(1,0,0,1,-1858.59,-1902.42)">
            <path d="M3170.11,2625.18L2778.56,2128.95C2784.66,2125.87 2790.28,2121.7 2795.23,2116.49C2806,2105.15 2812.2,2090.38 2813.43,2074.75C2813.55,2074.89 2813.66,2075.03 2813.78,2075.18L3217.97,2587.42L3170.11,2625.18Z" style="fill:rgb(178,133,39);fill-rule:nonzero;"/>
        </g>
        <g transform="matrix(1,0,0,1,-1858.59,-1902.42)">
            <path d="M2775.1,2124.57L2765.93,2112.94C2759.02,2104.19 2751.36,2096.09 2743.03,2088.84L2743,2088.8C2723.97,2072.04 2701.58,2059.32 2677.15,2051.6L2534.02,2006.39L2512.34,1999.52L2508.7,1948.73L2733.69,2019.87C2762.68,2029.03 2788.28,2045.76 2808.22,2068.5C2808.32,2085.04 2802.5,2100.92 2791.28,2112.74C2786.51,2117.77 2781.05,2121.72 2775.1,2124.57Z" style="fill:rgb(178,154,143);fill-rule:nonzero;"/>
        </g>
        <g transform="matrix(1,0,0,1,-1858.59,-1902.42)">
            <path d="M2778.56,2128.95L2775.1,2124.57C2781.05,2121.72 2786.51,2117.77 2791.28,2112.74C2802.5,2100.92 2808.32,2085.04 2808.22,2068.5C2810,2070.53 2811.74,2072.62 2813.43,2074.75C2812.2,2090.38 2806,2105.15 2795.23,2116.49C2790.28,2121.7 2784.66,2125.87 2778.56,2128.95Z" style="fill:rgb(40,0,116);fill-rule:nonzero;"/>
        </g>
        <g transform="matrix(1,0,0,1,-1858.59,-1902.42)">
            <path d="M3217.38,3045.37C3210.41,3045.37 3203.37,3044.97 3196.3,3044.16C3148.21,3038.63 3103.65,3013.95 3074.05,2976.44L3028.36,2918.55L3056.12,2896.65L3101.8,2954.55C3140.78,3003.94 3199.82,3030.28 3258.99,3030.28C3271.44,3030.28 3283.9,3029.11 3296.17,3026.75C3272.01,3038.99 3245.16,3045.37 3217.38,3045.37Z" style="fill:rgb(255,192,180);fill-rule:nonzero;"/>
        </g>
        <g transform="matrix(1,0,0,1,-1858.59,-1902.42)">
            <path d="M2940.09,2806.68L2535.9,2294.44C2533.53,2291.43 2531.28,2288.36 2529.13,2285.22C2534.64,2286.25 2540.19,2286.76 2545.66,2286.76C2554.69,2286.76 2563.5,2285.36 2571.54,2282.53L2662,2397.17C2752.03,2405.36 2826.62,2515.79 2822.28,2600.29L2967.85,2784.78L2940.09,2806.68Z" style="fill:rgb(255,232,168);fill-rule:nonzero;"/>
        </g>
        <g transform="matrix(1,0,0,1,-1858.59,-1902.42)">
            <path d="M2545.64,2281.35C2538.79,2281.35 2531.8,2280.48 2524.94,2278.77C2510.95,2256.13 2502.66,2230.51 2500.74,2203.68L2485.53,1991.03L2512.34,1999.52L2513.97,2022.21L2524.65,2171.93C2526.35,2195.23 2532.44,2217.88 2542.48,2238.68L2542.52,2238.72C2548.26,2250.68 2555.36,2262.02 2563.66,2272.54L2567.97,2277.99C2560.97,2280.24 2553.4,2281.35 2545.64,2281.35Z" style="fill:rgb(255,243,220);fill-rule:nonzero;"/>
        </g>
        <g transform="matrix(1,0,0,1,-1858.59,-1902.42)">
            <path d="M2545.66,2286.76C2540.19,2286.76 2534.64,2286.25 2529.13,2285.22C2527.68,2283.1 2526.28,2280.95 2524.94,2278.77C2531.8,2280.48 2538.79,2281.35 2545.64,2281.35C2553.4,2281.35 2560.97,2280.24 2567.97,2277.99L2571.54,2282.53C2563.5,2285.36 2554.69,2286.76 2545.66,2286.76Z" style="fill:rgb(186,166,207);fill-rule:nonzero;"/>
        </g>
        <g transform="matrix(1,0,0,1,-1858.59,-1902.42)">
            <path d="M2512.34,1999.52L2485.53,1991.03L2483.76,1966.25C2483.33,1960.31 2485.77,1954.79 2490.45,1951.1C2493.65,1948.57 2497.44,1947.27 2501.33,1947.27C2503.13,1947.27 2504.95,1947.55 2506.75,1948.11L2508.7,1948.73L2512.34,1999.52Z" style="fill:rgb(228,220,216);fill-rule:nonzero;"/>
        </g>
        <g transform="matrix(1,0,0,1,-1858.59,-1902.42)">
            <path d="M2501.33,1947.27C2497.44,1947.27 2493.65,1948.57 2490.45,1951.1C2485.77,1954.79 2483.33,1960.31 2483.76,1966.25L2500.74,2203.68C2503.11,2236.91 2515.27,2268.29 2535.9,2294.44L3074.05,2976.44C3103.65,3013.95 3148.21,3038.63 3196.3,3044.16C3243.58,3049.6 3289.49,3036.66 3325.64,3007.78C3362.24,2978.54 3385.42,2936.81 3390.91,2890.26C3396.41,2843.29 3383.32,2796.99 3354.06,2759.89L2813.78,2075.18C2793.14,2049.03 2765.45,2029.9 2733.69,2019.87L2506.75,1948.11C2504.95,1947.55 2503.13,1947.27 2501.33,1947.27ZM3217.43,3081.37C3209.07,3081.37 3200.65,3080.89 3192.2,3079.92C3134.65,3073.31 3081.28,3043.72 3045.79,2998.74L2507.65,2316.73C2482.53,2284.9 2467.73,2246.7 2464.83,2206.25L2447.85,1968.82C2446.58,1951.06 2454.17,1933.87 2468.16,1922.83C2482.14,1911.8 2500.62,1908.42 2517.61,1913.8L2744.54,1985.55C2783.2,1997.76 2816.91,2021.05 2842.03,2052.88L3382.31,2737.6C3417.53,2782.23 3433.28,2837.94 3426.66,2894.47C3420.05,2950.49 3392.16,3000.71 3348.11,3035.9C3310.92,3065.62 3265.25,3081.37 3217.43,3081.37Z" style="fill:rgb(0,0,114);fill-rule:nonzero;"/>
        </g>
        <g transform="matrix(1,0,0,1,-1858.59,-1902.42)">
            <path d="M3223.06,2586.59L2937.5,2811.91C2924.23,2822.38 2921.96,2841.64 2932.43,2854.92L2979.66,2914.78C2990.14,2928.06 3009.4,2930.33 3022.68,2919.85L3308.24,2694.53C3321.51,2684.05 3323.78,2664.79 3313.31,2651.52L3266.07,2591.66C3255.6,2578.38 3236.34,2576.11 3223.06,2586.59Z" style="fill:rgb(181,180,191);fill-rule:nonzero;"/>
        </g>
        <g transform="matrix(1,0,0,1,-1858.59,-1902.42)">
            <path d="M3241.98,2582.5C3235.69,2582.5 3229.62,2584.59 3224.61,2588.55L2939.05,2813.87C2933.15,2818.52 2929.42,2825.2 2928.54,2832.66C2927.66,2840.12 2929.74,2847.47 2934.4,2853.37L2981.63,2913.23C2986.28,2919.13 2992.95,2922.86 3000.41,2923.74C3007.88,2924.63 3015.23,2922.54 3021.13,2917.89L3306.69,2692.56C3312.59,2687.91 3316.32,2681.24 3317.2,2673.78C3318.08,2666.32 3316,2658.96 3311.34,2653.06L3264.11,2593.21C3259.46,2587.31 3252.79,2583.57 3245.33,2582.69C3244.21,2582.56 3243.09,2582.5 3241.98,2582.5ZM3003.77,2928.94C3002.46,2928.94 3001.15,2928.86 2999.83,2928.71C2991.04,2927.67 2983.18,2923.27 2977.7,2916.33L2930.47,2856.47C2924.99,2849.52 2922.54,2840.86 2923.58,2832.07C2924.61,2823.28 2929.01,2815.43 2935.96,2809.94L3221.51,2584.62C3228.46,2579.14 3237.13,2576.7 3245.91,2577.73C3254.7,2578.77 3262.56,2583.16 3268.04,2590.11L3315.27,2649.97C3320.75,2656.91 3323.2,2665.58 3322.16,2674.36C3321.13,2683.15 3316.73,2691.01 3309.78,2696.49L3024.22,2921.81C3018.32,2926.47 3011.18,2928.94 3003.77,2928.94Z" style="fill:rgb(0,0,114);fill-rule:nonzero;"/>
        </g>
        <g transform="matrix(1,0,0,1,-1858.59,-1902.42)">
            <path d="M3241.65,2743.88C3247.27,2733.46 3246.54,2720.27 3238.74,2710.38L3191.48,2650.48C3185.44,2642.83 3176.48,2638.84 3167.44,2638.84C3164.8,2638.84 3162.16,2639.18 3159.58,2639.86L3224.61,2588.55C3229.62,2584.59 3235.69,2582.5 3241.98,2582.5C3243.09,2582.5 3244.21,2582.56 3245.33,2582.69C3252.79,2583.57 3259.46,2587.31 3264.11,2593.21L3311.34,2653.06C3316,2658.96 3318.08,2666.32 3317.2,2673.78C3316.32,2681.24 3312.59,2687.91 3306.69,2692.56L3241.65,2743.88Z" style="fill:rgb(126,126,168);fill-rule:nonzero;"/>
        </g>
        <g transform="matrix(1,0,0,1,-1858.59,-1902.42)">
            <path d="M3233.68,2753.36C3237.06,2750.69 3239.73,2747.45 3241.65,2743.88L3306.69,2692.56C3312.59,2687.91 3316.32,2681.24 3317.2,2673.78C3318.08,2666.32 3316,2658.96 3311.34,2653.06L3264.11,2593.21C3259.46,2587.31 3252.79,2583.57 3245.33,2582.69C3244.21,2582.56 3243.09,2582.5 3241.98,2582.5C3235.69,2582.5 3229.62,2584.59 3224.61,2588.55L3159.58,2639.86C3155.66,2640.9 3151.89,2642.75 3148.5,2645.42L3223.08,2586.57C3228.7,2582.14 3235.38,2579.99 3242.02,2579.99C3251.06,2579.99 3260.02,2583.98 3266.06,2591.64L3313.32,2651.54C3323.79,2664.8 3321.52,2684.04 3308.26,2694.51L3233.68,2753.36Z" style="fill:rgb(0,0,114);fill-rule:nonzero;"/>
        </g>
        <g transform="matrix(1,0,0,1,-1858.59,-1902.42)">
            <path d="M3003.77,2923.94C3002.66,2923.94 3001.54,2923.88 3000.41,2923.74C2992.95,2922.86 2986.28,2919.13 2981.63,2913.23L2934.4,2853.37C2929.74,2847.47 2927.66,2840.12 2928.54,2832.66C2929.42,2825.2 2933.15,2818.52 2939.05,2813.87L2964.83,2793.52C2959.22,2803.94 2959.95,2817.14 2967.74,2827.02L3015.01,2886.92C3021.05,2894.58 3030,2898.57 3039.05,2898.57C3041.69,2898.57 3044.33,2898.23 3046.91,2897.54L3021.13,2917.89C3016.12,2921.84 3010.06,2923.94 3003.77,2923.94Z" style="fill:rgb(229,229,233);fill-rule:nonzero;"/>
        </g>
        <g transform="matrix(1,0,0,1,-1858.59,-1902.42)">
            <path d="M3003.72,2926.44C2994.68,2926.44 2985.72,2922.45 2979.68,2914.8L2932.42,2854.9C2921.95,2841.63 2924.22,2822.39 2937.48,2811.92L2972.81,2784.05C2969.43,2786.72 2966.76,2789.96 2964.83,2793.52L2939.05,2813.87C2933.15,2818.52 2929.42,2825.2 2928.54,2832.66C2927.66,2840.12 2929.74,2847.47 2934.4,2853.37L2981.63,2913.23C2986.28,2919.13 2992.95,2922.86 3000.41,2923.74C3001.54,2923.88 3002.66,2923.94 3003.77,2923.94C3010.06,2923.94 3016.12,2921.84 3021.13,2917.89L3046.91,2897.54C3050.83,2896.5 3054.6,2894.66 3057.98,2891.99L3022.66,2919.87C3017.04,2924.3 3010.36,2926.44 3003.72,2926.44Z" style="fill:rgb(166,166,206);fill-rule:nonzero;"/>
        </g>
        <g transform="matrix(1,0,0,1,-1858.59,-1902.42)">
            <path d="M3223.06,2586.58L3223.11,2586.58L3223.06,2586.58ZM3242.01,2598C3239.19,2598 3236.46,2598.94 3234.21,2600.71L2948.65,2826.04C2946,2828.13 2944.33,2831.12 2943.93,2834.47C2943.54,2837.82 2944.47,2841.12 2946.56,2843.77L2993.79,2903.63C2995.89,2906.28 2998.88,2907.96 3002.23,2908.35C3005.57,2908.73 3008.88,2907.81 3011.53,2905.72L3297.09,2680.4C3299.74,2678.31 3301.41,2675.31 3301.81,2671.96C3302.2,2668.62 3301.27,2665.31 3299.18,2662.67L3251.95,2602.8C3249.85,2600.16 3246.86,2598.48 3243.51,2598.08C3243.01,2598.02 3242.51,2598 3242.01,2598ZM3003.8,2944.44C3001.88,2944.44 2999.95,2944.33 2998.01,2944.1C2985.11,2942.58 2973.58,2936.13 2965.53,2925.92L2918.3,2866.07C2910.26,2855.88 2906.66,2843.16 2908.18,2830.26C2909.71,2817.36 2916.16,2805.82 2926.35,2797.78L3211.91,2572.45C3222.11,2564.41 3234.83,2560.8 3247.73,2562.34C3260.63,2563.86 3272.16,2570.31 3280.21,2580.51L3327.44,2640.37C3335.48,2650.56 3339.08,2663.28 3337.55,2676.18C3336.03,2689.08 3329.58,2700.61 3319.39,2708.66L3033.83,2933.98C3025.16,2940.82 3014.67,2944.44 3003.8,2944.44Z" style="fill:rgb(0,0,114);fill-rule:nonzero;"/>
        </g>
        <g transform="matrix(1,0,0,1,-1858.59,-1902.42)">
            <path d="M2545.69,2301.96C2527.17,2301.96 2507.99,2297 2491.49,2287.27C2489.65,2286.18 2488.01,2284.77 2486.66,2283.11C2480.4,2275.4 2481.55,2264.04 2489.27,2257.78C2495.49,2252.72 2504.05,2252.49 2510.42,2256.64C2529.48,2267.59 2554.12,2269.14 2570.63,2260.38C2584.32,2253.1 2591.89,2239.24 2593.12,2219.18C2593.47,2213.4 2596.59,2208.14 2601.49,2205.06C2606.39,2201.97 2612.47,2201.42 2617.84,2203.6C2648.09,2215.85 2674.04,2215.23 2690.91,2201.84C2707.81,2188.42 2714.67,2162.68 2709.73,2131.21C2708.74,2124.92 2711.14,2118.58 2716.05,2114.53C2720.96,2110.49 2727.64,2109.33 2733.62,2111.49C2751.51,2117.95 2768.48,2114.57 2780.2,2102.22C2793.38,2088.35 2796.64,2066.8 2788.56,2047.26C2785.32,2040.01 2787.19,2031.2 2793.64,2025.95C2801.36,2019.68 2812.67,2020.83 2818.95,2028.55L2818.98,2028.59C2820.05,2029.91 2820.94,2031.38 2821.6,2032.96C2835.41,2065.77 2829.4,2102.68 2806.31,2127.01C2790.6,2143.55 2769.65,2151.72 2747.28,2150.64C2747.22,2184.34 2735.36,2212.51 2713.28,2230.03C2690.38,2248.21 2659.67,2252.95 2625.3,2243.97C2619.19,2265.51 2606.2,2282.24 2587.51,2292.17C2575.18,2298.72 2560.65,2301.96 2545.69,2301.96Z" style="fill:rgb(0,0,114);fill-rule:nonzero;"/>
        </g>
        <g transform="matrix(1,0,0,1,-1858.59,-1902.42)">
            <path d="M2472.04,2073.25C2463.32,2073.25 2455.65,2066.89 2454.28,2058C2452.76,2048.17 2459.49,2038.98 2469.32,2037.46C2522.86,2029.19 2558.85,2000.79 2579.35,1950.64C2583.11,1941.44 2593.62,1937.01 2602.82,1940.79C2612.02,1944.55 2616.43,1955.06 2612.67,1964.26C2587.34,2026.21 2540.96,2062.81 2474.82,2073.03C2473.88,2073.18 2472.96,2073.25 2472.04,2073.25Z" style="fill:rgb(0,0,114);fill-rule:nonzero;"/>
        </g>
        <g transform="matrix(1,0,0,1,-1858.59,-1902.42)">
            <path d="M2596,1957.48L2512.18,1930.96C2488.14,1923.35 2464.01,1942.39 2465.81,1967.54L2472.08,2055.26C2531.81,2046.03 2573.14,2013.42 2596,1957.48Z" style="fill:rgb(0,0,114);fill-rule:nonzero;"/>
        </g>
    </g>
</svg>
